<svg width="64" height="64" viewBox="0 0 64 64" fill="none" xmlns="http://www.w3.org/2000/svg">
<path d="M25.2813 5.07562C23.7298 5.13312 22.4477 6.48224 22.4218 8.05762C22.3367 13.5589 22.2824 19.06 22.2592 24.5612C20.9717 26.4812 19.6845 28.3897 18.4024 30.2775C22.8868 30.2714 27.3712 30.2684 31.8554 30.2686C30.5742 27.0659 29.2928 23.8621 28.0242 20.6729C28.0348 16.4074 28.0522 12.1419 28.0763 7.87624C28.0839 6.28587 26.8329 5.01799 25.2813 5.07562Z" fill="url(#paint0_linear)"/>
<path d="M42.2632 10.9992C40.6957 10.9197 39.4399 12.1574 39.4549 13.739C39.479 16.0707 39.4981 18.4025 39.5124 20.7341C38.2617 24.9504 36.9825 29.2016 35.698 33.467C38.9022 31.1146 42.1085 28.7744 45.299 26.518C45.2657 19.2417 45.1557 13.979 45.1585 13.979C45.1296 12.4239 43.8306 11.0789 42.2632 10.9992Z" fill="url(#paint1_linear)"/>
<path d="M20.3318 26.4841C20.3001 26.4841 20.336 43.342 20.457 48.605C28.671 48.0232 36.9179 46.969 45.1902 45.6403C45.216 45.6403 45.3601 31.8326 45.299 26.5183C36.9766 26.408 28.6543 26.3966 20.3318 26.4841Z" fill="url(#paint2_linear)"/>
<path d="M22.2486 33.448C22.2431 30.4857 22.2466 27.5236 22.2593 24.5613C22.2654 22.9822 20.9868 21.7257 19.4001 21.7661C17.8134 21.807 16.5133 23.1062 16.5019 24.6565C16.4728 28.8231 16.4735 32.9898 16.5041 37.1565C16.5114 38.1872 16.9126 39.796 17.3936 40.7365C18.0796 42.0773 18.7665 43.4252 19.4529 44.7781C21.9329 46.1325 24.4051 47.4831 26.8655 48.8065C29.1521 47.5703 31.4514 46.2931 33.7595 44.9951C33.7828 38.6391 28.6173 33.478 22.2486 33.448Z" fill="url(#paint3_linear)"/>
<path d="M45.299 26.5182C37.6168 26.4163 29.9345 26.3988 22.2523 26.4656C22.2541 25.8308 22.2564 25.1961 22.259 24.5613C22.2651 22.9822 20.9865 21.7257 19.3999 21.7661C17.8131 21.807 16.513 23.1062 16.5016 24.6565C16.4725 28.8231 16.4733 32.9898 16.5039 37.1565C16.5111 38.1872 16.9124 39.7959 17.3934 40.7364C18.0794 42.0773 18.7663 43.4252 19.4526 44.7781C19.7726 44.9528 20.0925 45.1276 20.4123 45.3021C20.4256 46.4031 20.4405 47.5039 20.4569 48.6049C28.6709 48.0232 36.9178 46.9689 45.1901 45.6403C45.216 45.6402 45.3601 31.8325 45.299 26.5182Z" fill="url(#paint4_linear)"/>
<path d="M24.9438 45.8945C24.967 49.0828 24.9975 52.2711 25.0353 55.4594C31.688 55.7004 38.3408 55.562 44.9935 55.0444C45.0976 50.6576 45.0746 52.1265 45.1901 45.6401C38.4415 45.9574 31.6927 46.0423 24.9438 45.8945Z" fill="url(#paint5_linear)"/>
<path d="M19.4653 45.7236C19.5083 48.876 19.5648 52.0282 19.6348 55.1806C26.2875 55.6269 32.9403 55.6939 39.593 55.3815C39.6559 50.9339 39.6421 52.4232 39.7116 45.8469C32.963 46.0383 26.2141 45.9971 19.4653 45.7236Z" fill="url(#paint6_linear)"/>
<path d="M34.2153 50.7512C34.2103 51.8112 33.361 52.6842 32.3188 52.6892C31.2769 52.6942 30.4302 51.8286 30.4281 50.7676C30.426 49.7062 31.2751 48.8501 32.3243 48.846C33.3736 48.8421 34.2205 49.6908 34.2153 50.7512Z" fill="url(#paint7_linear)"/>
<path d="M26.8776 50.7238C26.8841 51.7831 26.0454 52.6238 25.0032 52.59C23.9612 52.5563 23.1041 51.6664 23.0905 50.6141C23.0767 49.5614 23.9175 48.7374 24.9666 48.7641C26.0157 48.7911 26.8711 49.6643 26.8776 50.7238Z" fill="url(#paint8_linear)"/>
<path d="M45.0175 54.1042C43.1357 54.2447 41.254 54.3562 39.3724 54.4386C39.3633 55.0745 39.3536 55.7105 39.3438 56.3463C41.2187 56.2573 43.0937 56.137 44.9687 55.9851C45.4864 55.943 45.9182 55.4865 45.9329 54.9691C45.9474 54.4515 45.5374 54.0657 45.0175 54.1042Z" fill="url(#paint9_linear)"/>
<path d="M40.2975 55.3469C40.3067 54.8211 39.8922 54.4159 39.3723 54.4384C32.7863 54.7266 26.2002 54.6589 19.6142 54.2349C19.0943 54.2017 18.6829 54.5944 18.6955 55.115C18.7083 55.6356 19.1388 56.0899 19.6562 56.1262C26.2187 56.5844 32.7812 56.6576 39.3437 56.3461C39.8614 56.3215 40.2887 55.8725 40.2975 55.3469Z" fill="url(#paint10_linear)"/>
<path d="M45.2048 44.6999C43.2973 44.7838 41.3897 44.8504 39.4822 44.8997C39.4767 45.5355 39.4709 46.1715 39.4647 46.8074C41.368 46.7515 43.2715 46.676 45.1749 46.5808C45.7004 46.5543 46.1342 46.1114 46.1432 45.594C46.1522 45.0765 45.7315 44.6772 45.2048 44.6999Z" fill="url(#paint11_linear)"/>
<path d="M40.4264 45.8257C40.4319 45.2999 40.0089 44.8862 39.4821 44.8995C32.8057 45.0718 26.1292 45.0312 19.4529 44.778C18.926 44.7584 18.5047 45.1629 18.5126 45.6835C18.5204 46.2042 18.9534 46.6465 19.4787 46.6694C26.1407 46.9568 32.8027 47.0028 39.4647 46.8074C39.9901 46.7918 40.4209 46.3513 40.4264 45.8257Z" fill="url(#paint12_linear)"/>
<path d="M41.5533 50.5348C41.5365 51.5828 40.6768 52.4773 39.6348 52.521C38.5926 52.5649 37.7566 51.734 37.766 50.6771C37.7756 49.62 38.633 48.7422 39.6823 48.7071C40.7314 48.6725 41.57 49.4866 41.5533 50.5348Z" fill="url(#paint13_linear)"/>
<path d="M30.8975 17.7778C29.3161 17.7802 28.029 19.0836 28.0243 20.6728C28.0179 23.2322 28.0139 25.7915 28.0124 28.3508C28.0114 29.9403 29.3024 31.2301 30.8945 31.2306C32.4865 31.2305 33.7775 29.94 33.7768 28.3493C35.0571 27.0706 36.3364 25.7956 37.612 24.5308C36.3289 23.2441 35.047 21.954 33.7683 20.6667C33.7646 19.0762 32.4789 17.7756 30.8975 17.7778Z" fill="url(#paint14_linear)"/>
<path d="M36.6275 17.8173C35.046 17.7924 33.7661 19.0753 33.7684 20.6666C33.7729 23.2275 33.7757 25.7884 33.7769 28.3493C33.7774 29.9408 35.068 31.2306 36.6601 31.2291C38.252 31.2269 39.5436 29.9443 39.5412 28.3654C39.5376 25.8216 39.528 23.278 39.5125 20.7343C39.5021 19.1555 38.209 17.8424 36.6275 17.8173Z" fill="url(#paint15_linear)"/>
<defs>
<linearGradient id="paint0_linear" x1="12.379" y1="33.3209" x2="36.5604" y2="9.13949" gradientUnits="userSpaceOnUse">
<stop stop-color="#FFA9D4"/>
<stop offset="0.2953" stop-color="#FFC6E3"/>
<stop offset="0.7601" stop-color="#FFEFF7"/>
<stop offset="1" stop-color="white"/>
</linearGradient>
<linearGradient id="paint1_linear" x1="24.963" y1="36.9515" x2="48.8372" y2="13.0771" gradientUnits="userSpaceOnUse">
<stop stop-color="#FFA9D4"/>
<stop offset="0.2953" stop-color="#FFC6E3"/>
<stop offset="0.7601" stop-color="#FFEFF7"/>
<stop offset="1" stop-color="white"/>
</linearGradient>
<linearGradient id="paint2_linear" x1="13.686" y1="55.1372" x2="46.7249" y2="22.0984" gradientUnits="userSpaceOnUse">
<stop stop-color="#FFA9D4"/>
<stop offset="0.2953" stop-color="#FFC6E3"/>
<stop offset="0.7601" stop-color="#FFEFF7"/>
<stop offset="1" stop-color="white"/>
</linearGradient>
<linearGradient id="paint3_linear" x1="10.9838" y1="48.3963" x2="33.595" y2="25.785" gradientUnits="userSpaceOnUse">
<stop stop-color="#FFA9D4"/>
<stop offset="0.2953" stop-color="#FFC6E3"/>
<stop offset="0.7601" stop-color="#FFEFF7"/>
<stop offset="1" stop-color="white"/>
</linearGradient>
<linearGradient id="paint4_linear" x1="30.8973" y1="46.9362" x2="30.8973" y2="24.8271" gradientUnits="userSpaceOnUse">
<stop stop-color="#FF2F2B"/>
<stop offset="0.0138" stop-color="#FF4450" stop-opacity="0.959"/>
<stop offset="0.0305" stop-color="#FF5874" stop-opacity="0.909"/>
<stop offset="0.0492" stop-color="#FF6B94" stop-opacity="0.853"/>
<stop offset="0.07" stop-color="#FF7AB0" stop-opacity="0.79"/>
<stop offset="0.0935" stop-color="#FF87C6" stop-opacity="0.72"/>
<stop offset="0.1209" stop-color="#FF90D7" stop-opacity="0.638"/>
<stop offset="0.1547" stop-color="#FF97E2" stop-opacity="0.537"/>
<stop offset="0.2022" stop-color="#FF9BE9" stop-opacity="0.395"/>
<stop offset="0.334" stop-color="#FF9CEB" stop-opacity="0"/>
</linearGradient>
<linearGradient id="paint5_linear" x1="22.1637" y1="63.2745" x2="48.7227" y2="36.7155" gradientUnits="userSpaceOnUse">
<stop stop-color="#FF4747"/>
<stop offset="0.5" stop-color="#FF9CEB"/>
<stop offset="1" stop-color="#FFD6EF"/>
</linearGradient>
<linearGradient id="paint6_linear" x1="1.03352" y1="79.0482" x2="35.6545" y2="44.4272" gradientUnits="userSpaceOnUse">
<stop stop-color="#FF4747"/>
<stop offset="1" stop-color="#FF9CEB"/>
</linearGradient>
<linearGradient id="paint7_linear" x1="27.9082" y1="55.174" x2="35.4847" y2="47.5975" gradientUnits="userSpaceOnUse">
<stop stop-color="#FFA9D4"/>
<stop offset="0.2953" stop-color="#FFC6E3"/>
<stop offset="0.7601" stop-color="#FFEFF7"/>
<stop offset="1" stop-color="white"/>
</linearGradient>
<linearGradient id="paint8_linear" x1="20.6804" y1="54.9769" x2="28.074" y2="47.5834" gradientUnits="userSpaceOnUse">
<stop stop-color="#FFA9D4"/>
<stop offset="0.2953" stop-color="#FFC6E3"/>
<stop offset="0.7601" stop-color="#FFEFF7"/>
<stop offset="1" stop-color="white"/>
</linearGradient>
<linearGradient id="paint9_linear" x1="22.7609" y1="74.7922" x2="65.3125" y2="32.2408" gradientUnits="userSpaceOnUse">
<stop stop-color="#FF4747"/>
<stop offset="0.5" stop-color="#FF9CEB"/>
<stop offset="1" stop-color="#FFD6EF"/>
</linearGradient>
<linearGradient id="paint10_linear" x1="4.55053" y1="80.1837" x2="44.4288" y2="40.3055" gradientUnits="userSpaceOnUse">
<stop stop-color="#FF4747"/>
<stop offset="1" stop-color="#FF9CEB"/>
</linearGradient>
<linearGradient id="paint11_linear" x1="19.9554" y1="68.2976" x2="62.1151" y2="26.1377" gradientUnits="userSpaceOnUse">
<stop stop-color="#FF4747"/>
<stop offset="0.5" stop-color="#FF9CEB"/>
<stop offset="1" stop-color="#FFD6EF"/>
</linearGradient>
<linearGradient id="paint12_linear" x1="0.881495" y1="74.3478" x2="41.4667" y2="33.7628" gradientUnits="userSpaceOnUse">
<stop stop-color="#FF4747"/>
<stop offset="1" stop-color="#FF9CEB"/>
</linearGradient>
<linearGradient id="paint13_linear" x1="35.1625" y1="55.1005" x2="42.8765" y2="47.3866" gradientUnits="userSpaceOnUse">
<stop stop-color="#FFA9D4"/>
<stop offset="0.2953" stop-color="#FFC6E3"/>
<stop offset="0.7601" stop-color="#FFEFF7"/>
<stop offset="1" stop-color="white"/>
</linearGradient>
<linearGradient id="paint14_linear" x1="20.5304" y1="34.8792" x2="36.3136" y2="19.096" gradientUnits="userSpaceOnUse">
<stop stop-color="#FFA9D4"/>
<stop offset="0.2953" stop-color="#FFC6E3"/>
<stop offset="0.7601" stop-color="#FFEFF7"/>
<stop offset="1" stop-color="white"/>
</linearGradient>
<linearGradient id="paint15_linear" x1="24.6469" y1="36.5166" x2="42.3065" y2="18.8569" gradientUnits="userSpaceOnUse">
<stop stop-color="#FFA9D4"/>
<stop offset="0.2953" stop-color="#FFC6E3"/>
<stop offset="0.7601" stop-color="#FFEFF7"/>
<stop offset="1" stop-color="white"/>
</linearGradient>
</defs>
</svg>
