<svg width="64" height="64" viewBox="0 0 64 64" fill="none" xmlns="http://www.w3.org/2000/svg">
<path d="M11.7743 46.1875C11.8169 47.4375 11.8646 48.6875 11.9172 49.9375C11.9616 50.972 12.8404 51.8576 13.875 51.9094C25.9584 52.5031 38.0416 52.5031 50.125 51.9094C51.1596 51.858 52.0384 50.972 52.0827 49.9375C52.1354 48.6875 52.1831 47.4375 52.2257 46.1875C38.7419 46.7229 25.2581 46.7229 11.7743 46.1875Z" fill="url(#paint0_linear)"/>
<path d="M11.7743 46.1875C11.8169 47.4375 11.8646 48.6875 11.9172 49.9375C11.9616 50.972 12.8404 51.8576 13.875 51.9094C25.9584 52.5031 38.0416 52.5031 50.125 51.9094C51.1596 51.858 52.0384 50.972 52.0827 49.9375C52.1354 48.6875 52.1831 47.4375 52.2257 46.1875C38.7419 46.7229 25.2581 46.7229 11.7743 46.1875Z" fill="url(#paint1_linear)"/>
<path d="M11.6611 42.4375C11.6939 43.6875 11.7315 44.9375 11.7743 46.1875C11.8103 47.222 12.6889 48.0996 13.7319 48.1426C25.9106 48.6336 38.0894 48.6336 50.2681 48.1426C51.3111 48.0998 52.1898 47.2219 52.2257 46.1875C52.2685 44.9375 52.3061 43.6875 52.3389 42.4375C38.7796 42.8479 25.2204 42.8479 11.6611 42.4375Z" fill="url(#paint2_linear)"/>
<path d="M11.6611 42.4375C11.6939 43.6875 11.7315 44.9375 11.7743 46.1875C11.8103 47.222 12.6889 48.0996 13.7319 48.1426C25.9106 48.6336 38.0894 48.6336 50.2681 48.1426C51.3111 48.0998 52.1898 47.2219 52.2257 46.1875C52.2685 44.9375 52.3061 43.6875 52.3389 42.4375C38.7796 42.8479 25.2204 42.8479 11.6611 42.4375Z" fill="url(#paint3_linear)"/>
<path d="M52.4641 24.3125C52.5388 30.3541 52.497 36.3959 52.3389 42.4375C52.3113 43.4721 51.434 44.342 50.3843 44.3759C44.2561 44.5701 38.1281 44.6673 32 44.6671C38.762 37.8339 45.7251 30.8822 52.4641 24.3125Z" fill="url(#paint4_linear)"/>
<path d="M52.4641 24.3125C52.5388 30.3541 52.497 36.3959 52.3389 42.4375C52.3113 43.4721 51.434 44.342 50.3843 44.3759C44.2561 44.5701 38.1281 44.6673 32 44.6671C38.762 37.8339 45.7251 30.8822 52.4641 24.3125Z" fill="url(#paint5_radial)"/>
<path d="M50.808 28.2827C45.9145 33.0732 40.9405 38.0295 36.0436 42.9661C35.3603 37.3461 34.6424 31.7192 33.9203 26.0898C39.5461 26.8131 45.1768 27.556 50.808 28.2827Z" fill="url(#paint6_linear)"/>
<path d="M11.5779 21.5625C11.4513 28.5209 11.479 35.4791 11.6611 42.4375C11.6888 43.4721 12.566 44.342 13.6158 44.3759C19.7439 44.5701 25.8719 44.6673 32 44.6671C33.5744 44.6674 35.0035 44.0144 36.0438 42.9661C37.0834 41.9178 37.7358 40.4726 37.7438 38.8846C37.7555 36.5401 37.7625 34.1959 37.7649 31.8514C37.7659 30.7917 38.6261 29.9329 39.6876 29.9335C42.0366 29.9339 44.3855 29.9345 46.7345 29.9352C48.3256 29.9356 49.7689 29.2995 50.8083 28.2827C51.8475 27.2649 52.4838 25.8642 52.4643 24.3125C52.4529 23.3959 52.4389 22.4791 52.4223 21.5625C45.2503 18.9131 38.106 16.211 31.0521 13.6619C24.622 16.2361 18.1118 18.9265 11.5779 21.5625Z" fill="url(#paint7_linear)"/>
<path d="M48.6545 28.6752C47.057 28.557 39.2065 26.9852 39.2071 26.9842C36.6305 26.5245 34.4854 28.7805 34.8074 31.3772C34.8106 31.3781 35.7154 39.2203 35.8221 40.8142C35.8983 41.8988 35.5626 42.92 35.0121 43.7926C35.3863 43.5565 35.7328 43.2796 36.0438 42.9661C37.0834 41.9177 37.7358 40.4726 37.7438 38.8846C37.7555 36.5401 37.7625 34.1958 37.7649 31.8513C37.7659 30.7917 38.6261 29.9328 39.6876 29.9335C42.0366 29.9338 44.3855 29.9345 46.7345 29.9352C48.2939 29.9355 49.7103 29.3236 50.7445 28.3421C50.0958 28.5987 49.3908 28.7315 48.6545 28.6752Z" fill="url(#paint8_linear)"/>
<path d="M11.6157 19.6875C11.4475 27.2709 11.4626 34.8541 11.6611 42.4375C11.6887 43.4721 12.566 44.342 13.6158 44.3759C19.7439 44.5701 25.8719 44.6673 32 44.6671C33.5744 44.6674 35.0035 44.0144 36.0438 42.9661C37.0834 41.9178 37.7358 40.4726 37.7438 38.8846C37.7555 36.5401 37.7625 34.1959 37.7649 31.8514C37.7659 30.7917 38.6261 29.9329 39.6876 29.9335C42.0366 29.9339 44.3855 29.9345 46.7345 29.9352C48.3256 29.9356 49.7689 29.2995 50.8083 28.2827C51.8475 27.2649 52.4838 25.8642 52.4643 24.3125C52.4453 22.7709 52.4186 21.2291 52.3844 19.6875C45.2295 17.6304 38.107 15.5705 31.0521 13.6619C24.623 15.5955 18.1336 17.6467 11.6157 19.6875Z" fill="url(#paint9_radial)"/>
<path d="M50.4321 17.7575C38.1441 17.4204 25.856 17.4204 13.568 17.7575C12.9176 18.4027 12.2668 19.0462 11.6159 19.6875C11.602 20.3125 11.5894 20.9375 11.578 21.5625C25.1928 21.2771 38.8074 21.2771 52.4221 21.5625C52.4108 20.9375 52.3981 20.3125 52.3843 19.6875C51.7334 19.0462 51.0825 18.4027 50.4321 17.7575Z" fill="url(#paint10_linear)"/>
<path d="M50.2681 12.1075C38.0894 11.6165 25.9106 11.6165 13.7319 12.1075C12.6889 12.1504 11.8103 13.028 11.7743 14.0626C11.7103 15.9376 11.6574 17.8126 11.6158 19.6876C25.2053 19.3398 38.7946 19.3398 52.3841 19.6876C52.3425 17.8126 52.2898 15.9376 52.2256 14.0626C52.1898 13.028 51.3111 12.1504 50.2681 12.1075Z" fill="url(#paint11_linear)"/>
<path d="M16.8307 13.887C16.8147 14.5187 16.7996 15.1506 16.7855 15.7825C16.7615 16.8287 17.5991 17.6577 18.6526 17.6373C19.7062 17.617 20.572 16.749 20.5891 15.6951C20.5997 15.0593 20.611 14.4237 20.623 13.7881C19.3589 13.8163 18.0947 13.8493 16.8307 13.887Z" fill="url(#paint12_linear)"/>
<path d="M18.875 8.1289C17.8404 8.1664 16.9715 9.04978 16.938 10.0959C16.8985 11.3595 16.8627 12.6233 16.8307 13.8869C16.8036 14.9332 17.6365 15.7589 18.6874 15.7357C19.7382 15.712 20.6037 14.8419 20.6231 13.788C20.6471 12.5167 20.674 11.2453 20.7036 9.9739C20.7271 8.92015 19.9097 8.09153 18.875 8.1289Z" fill="url(#paint13_linear)"/>
<path d="M25.6795 13.7001C25.6729 14.3392 25.6665 14.9782 25.6606 15.6174C25.6504 16.676 26.4974 17.5259 27.5509 17.5194C28.6045 17.5124 29.4609 16.6495 29.4643 15.5884C29.4666 14.948 29.4691 14.3076 29.4718 13.6672C28.2076 13.6735 26.9436 13.6845 25.6795 13.7001Z" fill="url(#paint14_linear)"/>
<path d="M27.625 7.92128C26.5904 7.93365 25.7386 8.8069 25.7241 9.86553C25.7076 11.1438 25.6928 12.4219 25.6794 13.7002C25.6678 14.7587 26.5115 15.6074 27.5624 15.5998C28.6132 15.5918 29.4679 14.7283 29.4717 13.6672C29.4771 12.3864 29.483 11.1057 29.4896 9.8249C29.4944 8.7639 28.6597 7.9089 27.625 7.92128Z" fill="url(#paint15_linear)"/>
<path d="M34.5283 13.6672C34.5309 14.3076 34.5334 14.948 34.5358 15.5884C34.5391 16.6495 35.3955 17.5126 36.4491 17.5194C37.5026 17.526 38.3496 16.676 38.3394 15.6174C38.3335 14.9782 38.3273 14.3392 38.3205 13.7001C37.0564 13.6845 35.7924 13.6735 34.5283 13.6672Z" fill="url(#paint16_linear)"/>
<path d="M36.375 7.92128C35.3404 7.9089 34.5058 8.76378 34.5104 9.8249C34.517 11.1057 34.5229 12.3864 34.5283 13.6672C34.5321 14.7283 35.3868 15.5918 36.4376 15.5998C37.4885 15.6077 38.3323 14.7585 38.3206 13.7002C38.3073 12.4219 38.2924 11.1438 38.2759 9.86553C38.2614 8.80715 37.4096 7.93365 36.375 7.92128Z" fill="url(#paint17_linear)"/>
<path d="M43.377 13.7881C43.389 14.4238 43.4003 15.0595 43.4109 15.6951C43.428 16.749 44.2938 17.6168 45.3474 17.6373C46.4009 17.6576 47.2385 16.8287 47.2145 15.7825C47.2004 15.1506 47.1853 14.5188 47.1693 13.887C45.9053 13.8493 44.6411 13.8163 43.377 13.7881Z" fill="url(#paint18_linear)"/>
<path d="M45.125 8.12891C44.0903 8.09141 43.2729 8.92041 43.2965 9.97403C43.3261 11.2454 43.3529 12.5168 43.377 13.7882C43.3964 14.8419 44.2618 15.712 45.3128 15.7358C46.3636 15.7592 47.1965 14.9333 47.1694 13.887C47.1374 12.6234 47.1016 11.3597 47.0621 10.096C47.0286 9.04978 46.1596 8.16641 45.125 8.12891Z" fill="url(#paint19_linear)"/>
<defs>
<linearGradient id="paint0_linear" x1="-13.0011" y1="93.3657" x2="73.7491" y2="6.61549" gradientUnits="userSpaceOnUse">
<stop stop-color="#FC54FF"/>
<stop offset="0.1022" stop-color="#FD77FF"/>
<stop offset="0.2431" stop-color="#FDA0FF"/>
<stop offset="0.3875" stop-color="#FEC3FF"/>
<stop offset="0.5338" stop-color="#FEDDFF"/>
<stop offset="0.6827" stop-color="#FFF0FF"/>
<stop offset="0.8359" stop-color="#FFFBFF"/>
<stop offset="1" stop-color="white"/>
</linearGradient>
<linearGradient id="paint1_linear" x1="32" y1="46.7695" x2="32" y2="54.8667" gradientUnits="userSpaceOnUse">
<stop stop-color="#FDA0FF" stop-opacity="0.6"/>
<stop offset="0.0756" stop-color="#FDB3FF" stop-opacity="0.555"/>
<stop offset="0.2142" stop-color="#FECEFF" stop-opacity="0.472"/>
<stop offset="0.3642" stop-color="#FEE4FF" stop-opacity="0.382"/>
<stop offset="0.5292" stop-color="#FFF3FF" stop-opacity="0.283"/>
<stop offset="0.7205" stop-color="#FFFCFF" stop-opacity="0.168"/>
<stop offset="1" stop-color="white" stop-opacity="0"/>
</linearGradient>
<linearGradient id="paint2_linear" x1="-20.2513" y1="96.8815" x2="64.8425" y2="11.7879" gradientUnits="userSpaceOnUse">
<stop stop-color="#FC54FF"/>
<stop offset="0.1022" stop-color="#FD77FF"/>
<stop offset="0.2431" stop-color="#FDA0FF"/>
<stop offset="0.3875" stop-color="#FEC3FF"/>
<stop offset="0.5338" stop-color="#FEDDFF"/>
<stop offset="0.6827" stop-color="#FFF0FF"/>
<stop offset="0.8359" stop-color="#FFFBFF"/>
<stop offset="1" stop-color="white"/>
</linearGradient>
<linearGradient id="paint3_linear" x1="32" y1="43.0106" x2="32" y2="50.9848" gradientUnits="userSpaceOnUse">
<stop stop-color="#FDA0FF" stop-opacity="0.6"/>
<stop offset="0.0264" stop-color="#FDA6FF" stop-opacity="0.584"/>
<stop offset="0.202" stop-color="#FEC6FF" stop-opacity="0.479"/>
<stop offset="0.3839" stop-color="#FEDFFF" stop-opacity="0.37"/>
<stop offset="0.5723" stop-color="#FFF1FF" stop-opacity="0.257"/>
<stop offset="0.7717" stop-color="#FFFCFF" stop-opacity="0.137"/>
<stop offset="1" stop-color="white" stop-opacity="0"/>
</linearGradient>
<linearGradient id="paint4_linear" x1="23.3176" y1="15.5754" x2="56.1495" y2="48.4074" gradientUnits="userSpaceOnUse">
<stop stop-color="#FC54FF"/>
<stop offset="0.1022" stop-color="#FD77FF"/>
<stop offset="0.2431" stop-color="#FDA0FF"/>
<stop offset="0.3875" stop-color="#FEC3FF"/>
<stop offset="0.5338" stop-color="#FEDDFF"/>
<stop offset="0.6827" stop-color="#FFF0FF"/>
<stop offset="0.8359" stop-color="#FFFBFF"/>
<stop offset="1" stop-color="white"/>
</linearGradient>
<radialGradient id="paint5_radial" cx="0" cy="0" r="1" gradientUnits="userSpaceOnUse" gradientTransform="translate(38.0923 30.3616) scale(20.3263)">
<stop stop-color="#FC54FF"/>
<stop offset="0.0661" stop-color="#FD78FF" stop-opacity="0.934"/>
<stop offset="0.1469" stop-color="#FD9CFF" stop-opacity="0.853"/>
<stop offset="0.2353" stop-color="#FEBAFF" stop-opacity="0.765"/>
<stop offset="0.3313" stop-color="#FED4FF" stop-opacity="0.669"/>
<stop offset="0.4379" stop-color="#FFE7FF" stop-opacity="0.562"/>
<stop offset="0.561" stop-color="#FFF5FF" stop-opacity="0.439"/>
<stop offset="0.7154" stop-color="#FFFDFF" stop-opacity="0.285"/>
<stop offset="1" stop-color="white" stop-opacity="0"/>
</radialGradient>
<linearGradient id="paint6_linear" x1="-8.02649" y1="77.577" x2="44.9584" y2="24.5921" gradientUnits="userSpaceOnUse">
<stop stop-color="#FC54FF"/>
<stop offset="0.1022" stop-color="#FD77FF"/>
<stop offset="0.2431" stop-color="#FDA0FF"/>
<stop offset="0.3875" stop-color="#FEC3FF"/>
<stop offset="0.5338" stop-color="#FEDDFF"/>
<stop offset="0.6827" stop-color="#FFF0FF"/>
<stop offset="0.8359" stop-color="#FFFBFF"/>
<stop offset="1" stop-color="white"/>
</linearGradient>
<linearGradient id="paint7_linear" x1="-47.1263" y1="103.242" x2="47.3318" y2="8.78414" gradientUnits="userSpaceOnUse">
<stop stop-color="#FC54FF"/>
<stop offset="0.1022" stop-color="#FD77FF"/>
<stop offset="0.2431" stop-color="#FDA0FF"/>
<stop offset="0.3875" stop-color="#FEC3FF"/>
<stop offset="0.5338" stop-color="#FEDDFF"/>
<stop offset="0.6827" stop-color="#FFF0FF"/>
<stop offset="0.8359" stop-color="#FFFBFF"/>
<stop offset="1" stop-color="white"/>
</linearGradient>
<linearGradient id="paint8_linear" x1="12.992" y1="58.5286" x2="53.1346" y2="18.3859" gradientUnits="userSpaceOnUse">
<stop stop-color="#FC54FF"/>
<stop offset="0.1022" stop-color="#FD77FF"/>
<stop offset="0.2431" stop-color="#FDA0FF"/>
<stop offset="0.3875" stop-color="#FEC3FF"/>
<stop offset="0.5338" stop-color="#FEDDFF"/>
<stop offset="0.6827" stop-color="#FFF0FF"/>
<stop offset="0.8359" stop-color="#FFFBFF"/>
<stop offset="1" stop-color="white"/>
</linearGradient>
<radialGradient id="paint9_radial" cx="0" cy="0" r="1" gradientUnits="userSpaceOnUse" gradientTransform="translate(43.8981 36.6906) scale(25.9274)">
<stop stop-color="#FC54FF" stop-opacity="0.6"/>
<stop offset="0.0155" stop-color="#FC5AFF" stop-opacity="0.591"/>
<stop offset="0.1316" stop-color="#FD86FF" stop-opacity="0.521"/>
<stop offset="0.2533" stop-color="#FEABFF" stop-opacity="0.448"/>
<stop offset="0.3793" stop-color="#FECAFF" stop-opacity="0.372"/>
<stop offset="0.5111" stop-color="#FEE1FF" stop-opacity="0.293"/>
<stop offset="0.6512" stop-color="#FFF2FF" stop-opacity="0.209"/>
<stop offset="0.8052" stop-color="#FFFCFF" stop-opacity="0.117"/>
<stop offset="1" stop-color="white" stop-opacity="0"/>
</radialGradient>
<linearGradient id="paint10_linear" x1="-18.5613" y1="71.2051" x2="73.2569" y2="-20.6129" gradientUnits="userSpaceOnUse">
<stop stop-color="#FC54FF"/>
<stop offset="0.1022" stop-color="#FD77FF"/>
<stop offset="0.2431" stop-color="#FDA0FF"/>
<stop offset="0.3875" stop-color="#FEC3FF"/>
<stop offset="0.5338" stop-color="#FEDDFF"/>
<stop offset="0.6827" stop-color="#FFF0FF"/>
<stop offset="0.8359" stop-color="#FFFBFF"/>
<stop offset="1" stop-color="white"/>
</linearGradient>
<linearGradient id="paint11_linear" x1="20.2543" y1="28.326" x2="43.7457" y2="4.83436" gradientUnits="userSpaceOnUse">
<stop stop-color="#FC54FF"/>
<stop offset="0.215" stop-color="#FC59FF"/>
<stop offset="0.4551" stop-color="#FC66FF"/>
<stop offset="0.7073" stop-color="#FD7CFF"/>
<stop offset="0.9663" stop-color="#FD9BFF"/>
<stop offset="1" stop-color="#FDA0FF"/>
</linearGradient>
<linearGradient id="paint12_linear" x1="14.6849" y1="19.2057" x2="28.3159" y2="5.57459" gradientUnits="userSpaceOnUse">
<stop stop-color="#FC54FF"/>
<stop offset="0.1022" stop-color="#FD77FF"/>
<stop offset="0.2431" stop-color="#FDA0FF"/>
<stop offset="0.3875" stop-color="#FEC3FF"/>
<stop offset="0.5338" stop-color="#FEDDFF"/>
<stop offset="0.6827" stop-color="#FFF0FF"/>
<stop offset="0.8359" stop-color="#FFFBFF"/>
<stop offset="1" stop-color="white"/>
</linearGradient>
<linearGradient id="paint13_linear" x1="8.87975" y1="21.8479" x2="24.4616" y2="6.26603" gradientUnits="userSpaceOnUse">
<stop stop-color="#FC54FF"/>
<stop offset="0.1022" stop-color="#FD77FF"/>
<stop offset="0.2431" stop-color="#FDA0FF"/>
<stop offset="0.3875" stop-color="#FEC3FF"/>
<stop offset="0.5338" stop-color="#FEDDFF"/>
<stop offset="0.6827" stop-color="#FFF0FF"/>
<stop offset="0.8359" stop-color="#FFFBFF"/>
<stop offset="1" stop-color="white"/>
</linearGradient>
<linearGradient id="paint14_linear" x1="23.5869" y1="19.0282" x2="37.0861" y2="5.52899" gradientUnits="userSpaceOnUse">
<stop stop-color="#FC54FF"/>
<stop offset="0.1022" stop-color="#FD77FF"/>
<stop offset="0.2431" stop-color="#FDA0FF"/>
<stop offset="0.3875" stop-color="#FEC3FF"/>
<stop offset="0.5338" stop-color="#FEDDFF"/>
<stop offset="0.6827" stop-color="#FFF0FF"/>
<stop offset="0.8359" stop-color="#FFFBFF"/>
<stop offset="1" stop-color="white"/>
</linearGradient>
<linearGradient id="paint15_linear" x1="17.7921" y1="21.5735" x2="33.2125" y2="6.15303" gradientUnits="userSpaceOnUse">
<stop stop-color="#FC54FF"/>
<stop offset="0.1022" stop-color="#FD77FF"/>
<stop offset="0.2431" stop-color="#FDA0FF"/>
<stop offset="0.3875" stop-color="#FEC3FF"/>
<stop offset="0.5338" stop-color="#FEDDFF"/>
<stop offset="0.6827" stop-color="#FFF0FF"/>
<stop offset="0.8359" stop-color="#FFFBFF"/>
<stop offset="1" stop-color="white"/>
</linearGradient>
<linearGradient id="paint16_linear" x1="32.5074" y1="18.9709" x2="45.8121" y2="5.66611" gradientUnits="userSpaceOnUse">
<stop stop-color="#FC54FF"/>
<stop offset="0.1022" stop-color="#FD77FF"/>
<stop offset="0.2431" stop-color="#FDA0FF"/>
<stop offset="0.3875" stop-color="#FEC3FF"/>
<stop offset="0.5338" stop-color="#FEDDFF"/>
<stop offset="0.6827" stop-color="#FFF0FF"/>
<stop offset="0.8359" stop-color="#FFFBFF"/>
<stop offset="1" stop-color="white"/>
</linearGradient>
<linearGradient id="paint17_linear" x1="26.7691" y1="21.4063" x2="41.9264" y2="6.24889" gradientUnits="userSpaceOnUse">
<stop stop-color="#FC54FF"/>
<stop offset="0.1022" stop-color="#FD77FF"/>
<stop offset="0.2431" stop-color="#FDA0FF"/>
<stop offset="0.3875" stop-color="#FEC3FF"/>
<stop offset="0.5338" stop-color="#FEDDFF"/>
<stop offset="0.6827" stop-color="#FFF0FF"/>
<stop offset="0.8359" stop-color="#FFFBFF"/>
<stop offset="1" stop-color="white"/>
</linearGradient>
<linearGradient id="paint18_linear" x1="41.4466" y1="19.0333" x2="54.4937" y2="5.98634" gradientUnits="userSpaceOnUse">
<stop stop-color="#FC54FF"/>
<stop offset="0.1022" stop-color="#FD77FF"/>
<stop offset="0.2431" stop-color="#FDA0FF"/>
<stop offset="0.3875" stop-color="#FEC3FF"/>
<stop offset="0.5338" stop-color="#FEDDFF"/>
<stop offset="0.6827" stop-color="#FFF0FF"/>
<stop offset="0.8359" stop-color="#FFFBFF"/>
<stop offset="1" stop-color="white"/>
</linearGradient>
<linearGradient id="paint19_linear" x1="35.8109" y1="21.3459" x2="50.6031" y2="6.55367" gradientUnits="userSpaceOnUse">
<stop stop-color="#FC54FF"/>
<stop offset="0.1022" stop-color="#FD77FF"/>
<stop offset="0.2431" stop-color="#FDA0FF"/>
<stop offset="0.3875" stop-color="#FEC3FF"/>
<stop offset="0.5338" stop-color="#FEDDFF"/>
<stop offset="0.6827" stop-color="#FFF0FF"/>
<stop offset="0.8359" stop-color="#FFFBFF"/>
<stop offset="1" stop-color="white"/>
</linearGradient>
</defs>
</svg>
