<svg width="16" height="16" viewBox="0 0 16 16" fill="none" xmlns="http://www.w3.org/2000/svg">
<path fill-rule="evenodd" clip-rule="evenodd" d="M7.99997 0C3.58173 0 0 3.58195 0 8.00046C0 11.3898 2.10865 14.2873 5.08457 15.453C5.01467 14.8201 4.95152 13.8466 5.11238 13.1555C5.2577 12.5312 6.0504 9.17877 6.0504 9.17877C6.0504 9.17877 5.81111 8.6995 5.81111 7.99095C5.81111 6.87848 6.45587 6.04796 7.25868 6.04796C7.94121 6.04796 8.27087 6.56048 8.27087 7.17498C8.27087 7.86136 7.83386 8.88765 7.60834 9.83872C7.41987 10.6351 8.00764 11.2845 8.793 11.2845C10.2149 11.2845 11.3078 9.78514 11.3078 7.62081C11.3078 5.70529 9.9315 4.36591 7.96619 4.36591C5.68999 4.36591 4.35384 6.07334 4.35384 7.83795C4.35384 8.52551 4.61871 9.26291 4.94922 9.66368C5.0146 9.7429 5.02418 9.81235 5.00477 9.89315C4.94398 10.1459 4.80902 10.6893 4.78252 10.8005C4.74764 10.9469 4.66658 10.9779 4.51497 10.9075C3.51582 10.4423 2.89113 8.9815 2.89113 7.80804C2.89113 5.28432 4.72468 2.96666 8.17703 2.96666C10.9522 2.96666 13.1089 4.94428 13.1089 7.58729C13.1089 10.3446 11.3705 12.5636 8.9576 12.5636C8.14699 12.5636 7.38485 12.1425 7.12398 11.645C7.12398 11.645 6.72284 13.1725 6.62559 13.5468C6.44499 14.2418 5.95742 15.1128 5.6313 15.6442C6.3798 15.8759 7.17526 16.001 7.99997 16.001C12.4183 16.001 16 12.419 16 8.00046C16 3.58195 12.4183 0 7.99997 0" fill="black"/>
</svg>
