<svg width="37" height="66" viewBox="0 0 37 66" fill="none" xmlns="http://www.w3.org/2000/svg">
<path d="M15.9439 65.4379V59.7399C11.1092 59.1973 7.28586 57.4706 4.47386 54.5599C1.66186 51.6493 0.255859 47.9493 0.255859 43.4599H6.76786C6.76786 46.0746 7.53253 48.4179 9.06186 50.4899C10.6405 52.5126 12.9345 53.8199 15.9439 54.4119V34.3579C15.5985 34.2593 15.2285 34.1606 14.8339 34.0619C14.4885 33.9139 14.1432 33.7906 13.7979 33.6919C9.80186 32.3106 6.84186 30.6086 4.91786 28.5859C2.99386 26.5139 2.03186 23.8253 2.03186 20.5199C1.98253 16.6719 3.19119 13.4653 5.65786 10.8999C8.17386 8.33461 11.6025 6.85461 15.9439 6.45994V0.465942H21.0499V6.45994C25.1939 6.95327 28.4992 8.50727 30.9659 11.1219C33.4325 13.7366 34.6905 16.9186 34.7399 20.6679H28.2279C28.2279 18.8426 27.6359 17.0913 26.4519 15.4139C25.2679 13.6873 23.4672 12.5279 21.0499 11.9359V29.8439C21.4445 29.9426 21.8392 30.0659 22.2339 30.2139C22.6285 30.3619 23.0479 30.4853 23.4919 30.5839C25.9585 31.4719 28.1785 32.5079 30.1519 33.6919C32.1252 34.8759 33.6545 36.4053 34.7399 38.2799C35.8745 40.1546 36.4419 42.5473 36.4419 45.4579C36.4419 47.7766 35.8745 49.9719 34.7399 52.0439C33.6052 54.1159 31.8785 55.8673 29.5599 57.2979C27.2905 58.7286 24.4539 59.5673 21.0499 59.8139V65.4379H15.9439ZM8.46986 19.9279C8.46986 22.1973 9.13586 23.9239 10.4679 25.1079C11.7999 26.2426 13.6252 27.2293 15.9439 28.0679V11.7879C13.7239 12.1333 11.9232 13.0213 10.5419 14.4519C9.16053 15.8333 8.46986 17.6586 8.46986 19.9279ZM30.0039 45.8279C30.0039 42.9666 29.1652 40.8453 27.4879 39.4639C25.8105 38.0826 23.6645 36.9479 21.0499 36.0599V54.5599C23.9112 54.2146 26.1065 53.2279 27.6359 51.5999C29.2145 49.9719 30.0039 48.0479 30.0039 45.8279Z" fill="#C2DEFE"/>
</svg>
