<svg width="20" height="20" viewBox="0 0 20 20" fill="none" xmlns="http://www.w3.org/2000/svg">
<circle cx="10" cy="10" r="10" fill="url(#paint0_linear)"/>
<circle cx="9.9999" cy="10" r="7.66129" fill="url(#paint1_linear)" stroke="url(#paint2_linear)" stroke-width="0.483871"/>
<path d="M12.1547 7.33329V11C12.1547 11.9204 11.4085 12.6666 10.488 12.6666C9.56756 12.6666 8.82137 11.9204 8.82137 11V7.33329H7.48803V11C7.48803 12.6568 8.83118 14 10.488 14C12.1449 14 13.488 12.6568 13.488 11V7.33329H12.1547Z" fill="black"/>
<path d="M12.1547 7.33329V11C12.1547 11.9204 11.4085 12.6666 10.488 12.6666C9.56756 12.6666 8.82137 11.9204 8.82137 11V7.33329H7.48803V11C7.48803 12.6568 8.83118 14 10.488 14C12.1449 14 13.488 12.6568 13.488 11V7.33329H12.1547Z" fill="url(#paint3_linear)"/>
<path d="M8.1547 6L9.3094 7.5H7L8.1547 6Z" fill="black"/>
<path d="M8.1547 6L9.3094 7.5H7L8.1547 6Z" fill="url(#paint4_linear)"/>
<defs>
<linearGradient id="paint0_linear" x1="10" y1="0" x2="10" y2="20" gradientUnits="userSpaceOnUse">
<stop stop-color="#FFE69E"/>
<stop offset="1" stop-color="#FEBD64"/>
</linearGradient>
<linearGradient id="paint1_linear" x1="9.9999" y1="2.0968" x2="9.9999" y2="17.9033" gradientUnits="userSpaceOnUse">
<stop stop-color="#FFE69E"/>
<stop offset="1" stop-color="#FEBD64"/>
</linearGradient>
<linearGradient id="paint2_linear" x1="9.9999" y1="2.0968" x2="9.9999" y2="17.9033" gradientUnits="userSpaceOnUse">
<stop stop-color="#F8CE7D"/>
<stop offset="1" stop-color="#F4AE57"/>
</linearGradient>
<linearGradient id="paint3_linear" x1="8.15462" y1="6" x2="8.15462" y2="8" gradientUnits="userSpaceOnUse">
<stop stop-color="#AC660D"/>
<stop offset="1" stop-color="#CC8730"/>
</linearGradient>
<linearGradient id="paint4_linear" x1="8.15462" y1="6" x2="8.15462" y2="8" gradientUnits="userSpaceOnUse">
<stop stop-color="#AC660D"/>
<stop offset="1" stop-color="#CC8730"/>
</linearGradient>
</defs>
</svg>
