<svg width="24" height="24" viewBox="0 0 24 24" fill="none" xmlns="http://www.w3.org/2000/svg">
<path d="M22.2026 4.13818H1.79742C0.804703 4.13818 0 4.94289 0 5.93561V18.0649C0 19.0576 0.804703 19.8624 1.79742 19.8624H22.2026C23.1952 19.8624 24 19.0577 24 18.0649V5.93561C24 4.94289 23.1953 4.13818 22.2026 4.13818Z" fill="#F5F5F5"/>
<path d="M0.098877 5.34775H23.9011C23.6575 4.64382 22.9893 4.13818 22.2026 4.13818H1.79744C1.01069 4.13818 0.342486 4.64382 0.098877 5.34775Z" fill="#FF4B55"/>
<path d="M24 8.97656H0V10.1861H24V8.97656Z" fill="#FF4B55"/>
<path d="M24 6.55713H0V7.76664H24V6.55713Z" fill="#FF4B55"/>
<path d="M0 12.1912C0 12.4198 0.185297 12.6051 0.413813 12.6051H24V11.3955H0V12.1912Z" fill="#FF4B55"/>
<path d="M24 16.2339H0V17.4434H24V16.2339Z" fill="#FF4B55"/>
<path d="M23.9012 18.6528H0.098877C0.342486 19.3568 1.01074 19.8624 1.79744 19.8624H22.2026C22.9893 19.8624 23.6575 19.3568 23.9012 18.6528Z" fill="#FF4B55"/>
<path d="M24 13.8145H0V15.024H24V13.8145Z" fill="#FF4B55"/>
<path d="M0.413813 12.6051H10.7587C10.9872 12.6051 11.1725 12.4198 11.1725 12.1913V4.552C11.1725 4.32343 10.9872 4.13818 10.7587 4.13818H1.79742C0.804703 4.13823 0 4.94293 0 5.93565V12.1913C0 12.4198 0.185297 12.6051 0.413813 12.6051Z" fill="#41479B"/>
<path d="M1.16186 5.08771L1.25345 5.3624L1.543 5.3646C1.5805 5.36493 1.59601 5.41274 1.56587 5.43501L1.33295 5.60699L1.42033 5.88304C1.43167 5.91876 1.39094 5.94838 1.36042 5.92654L1.12488 5.75821L0.889329 5.92659C0.858813 5.94843 0.818173 5.91881 0.829423 5.88309L0.916798 5.60704L0.683876 5.43506C0.653736 5.41274 0.669251 5.36493 0.706751 5.36465L0.996297 5.36245L1.08789 5.08776C1.0997 5.05213 1.14995 5.05213 1.16186 5.08771Z" fill="#F5F5F5"/>
<path d="M1.16186 6.52469L1.25345 6.79938L1.543 6.80158C1.5805 6.80191 1.59601 6.84968 1.56587 6.87199L1.33295 7.04402L1.42033 7.32007C1.43167 7.35579 1.39094 7.38542 1.36042 7.36357L1.12488 7.19524L0.889329 7.36362C0.858813 7.38542 0.818173 7.35584 0.829423 7.32012L0.916798 7.04407L0.683876 6.87204C0.653736 6.84972 0.669251 6.80196 0.706751 6.80163L0.996297 6.79943L1.08789 6.52474C1.0997 6.48916 1.14995 6.48916 1.16186 6.52469Z" fill="#F5F5F5"/>
<path d="M1.16186 7.96174L1.25345 8.23642L1.543 8.23863C1.5805 8.23896 1.59601 8.28672 1.56587 8.30903L1.33295 8.48107L1.42033 8.75711C1.43167 8.79283 1.39094 8.82246 1.36042 8.80061L1.12488 8.63229L0.889329 8.80066C0.858813 8.82246 0.818173 8.79293 0.829423 8.75716L0.916798 8.48111L0.683876 8.30908C0.653736 8.28677 0.669251 8.239 0.706751 8.23867L0.996297 8.23647L1.08789 7.96178C1.0997 7.92616 1.14995 7.92616 1.16186 7.96174Z" fill="#F5F5F5"/>
<path d="M1.16186 9.39875L1.25345 9.67343L1.543 9.67564C1.5805 9.67596 1.59601 9.72378 1.56587 9.74604L1.33295 9.91807L1.42033 10.1941C1.43167 10.2298 1.39094 10.2595 1.36042 10.2376L1.12488 10.0693L0.889329 10.2377C0.858813 10.2595 0.818173 10.2299 0.829423 10.1942L0.916798 9.91812L0.683876 9.74609C0.653736 9.72387 0.669251 9.67601 0.706751 9.67568L0.996297 9.67348L1.08789 9.39879C1.0997 9.36317 1.14995 9.36317 1.16186 9.39875Z" fill="#F5F5F5"/>
<path d="M1.16186 10.8357L1.25345 11.1104L1.543 11.1126C1.5805 11.1129 1.59601 11.1607 1.56587 11.183L1.33295 11.3551L1.42033 11.6311C1.43167 11.6668 1.39094 11.6964 1.36042 11.6746L1.12488 11.5063L0.889329 11.6746C0.858813 11.6964 0.818173 11.6669 0.829423 11.6311L0.916798 11.3551L0.683876 11.1831C0.653736 11.1608 0.669251 11.113 0.706751 11.1127L0.996297 11.1105L1.08789 10.8358C1.0997 10.8002 1.14995 10.8002 1.16186 10.8357Z" fill="#F5F5F5"/>
<path d="M2.27709 5.79227L2.36869 6.06696L2.65823 6.06917C2.69573 6.06949 2.71125 6.11731 2.68111 6.13957L2.44819 6.31161L2.53556 6.58765C2.54691 6.62337 2.50617 6.653 2.47566 6.63115L2.24011 6.46278L2.00456 6.63115C1.97405 6.65295 1.93341 6.62337 1.94466 6.58765L2.03203 6.31161L1.79911 6.13957C1.76897 6.11726 1.78449 6.06949 1.82199 6.06917L2.11153 6.06696L2.20313 5.79227C2.21494 5.75674 2.26523 5.75674 2.27709 5.79227Z" fill="#F5F5F5"/>
<path d="M2.27709 7.22883L2.36869 7.50352L2.65823 7.50572C2.69573 7.50605 2.71125 7.55386 2.68111 7.57613L2.44819 7.74816L2.53556 8.02421C2.54691 8.05993 2.50617 8.08955 2.47566 8.06771L2.24011 7.89933L2.00456 8.06771C1.97405 8.0895 1.93341 8.05997 1.94466 8.02421L2.03203 7.74816L1.79911 7.57613C1.76897 7.55391 1.78449 7.50605 1.82199 7.50572L2.11153 7.50352L2.20313 7.22883C2.21494 7.19325 2.26523 7.19325 2.27709 7.22883Z" fill="#F5F5F5"/>
<path d="M2.27709 8.66633L2.36869 8.94102L2.65823 8.94322C2.69573 8.94355 2.71125 8.99132 2.68111 9.01363L2.44819 9.18566L2.53556 9.46171C2.54691 9.49743 2.50617 9.52705 2.47566 9.50521L2.24011 9.33683L2.00456 9.50521C1.97405 9.52701 1.93341 9.49743 1.94466 9.46171L2.03203 9.18566L1.79911 9.01363C1.76897 8.99132 1.78449 8.94355 1.82199 8.94322L2.11153 8.94102L2.20313 8.66633C2.21494 8.63075 2.26523 8.63075 2.27709 8.66633Z" fill="#F5F5F5"/>
<path d="M2.27709 10.1028L2.36869 10.3775L2.65823 10.3797C2.69573 10.38 2.71125 10.4278 2.68111 10.4501L2.44819 10.6221L2.53556 10.8982C2.54691 10.9339 2.50617 10.9635 2.47566 10.9417L2.24011 10.7733L2.00456 10.9417C1.97405 10.9635 1.93341 10.9339 1.94466 10.8982L2.03203 10.6221L1.79911 10.4501C1.76897 10.4278 1.78449 10.38 1.82199 10.3797L2.11153 10.3775L2.20313 10.1028C2.21494 10.0673 2.26523 10.0673 2.27709 10.1028Z" fill="#F5F5F5"/>
<path d="M3.39257 5.08772L3.48417 5.36241L3.77371 5.36461C3.81121 5.36494 3.82673 5.41275 3.79659 5.43502L3.56367 5.607L3.65104 5.88305C3.66238 5.91877 3.62165 5.94839 3.59113 5.92655L3.35559 5.75817L3.12004 5.92655C3.08953 5.94839 3.04889 5.91877 3.06014 5.88305L3.14751 5.607L2.91459 5.43502C2.88445 5.4127 2.89996 5.36489 2.93746 5.36461L3.22701 5.36241L3.3186 5.08772C3.33042 5.05214 3.38071 5.05214 3.39257 5.08772Z" fill="#F5F5F5"/>
<path d="M3.39257 6.5247L3.48417 6.79938L3.77371 6.80159C3.81121 6.80191 3.82673 6.84968 3.79659 6.87199L3.56367 7.04402L3.65104 7.32007C3.66238 7.35579 3.62165 7.38541 3.59113 7.36357L3.35559 7.19519L3.12004 7.36357C3.08953 7.38537 3.04889 7.35579 3.06014 7.32007L3.14751 7.04402L2.91459 6.87199C2.88445 6.84968 2.89996 6.80191 2.93746 6.80159L3.22701 6.79938L3.3186 6.5247C3.33042 6.48916 3.38071 6.48916 3.39257 6.5247Z" fill="#F5F5F5"/>
<path d="M3.39257 7.96125L3.48417 8.23594L3.77371 8.23815C3.81121 8.23847 3.82673 8.28624 3.79659 8.30855L3.56367 8.48058L3.65104 8.75663C3.66238 8.79235 3.62165 8.82197 3.59113 8.80013L3.35559 8.63175L3.12004 8.80013C3.08953 8.82193 3.04889 8.79239 3.06014 8.75663L3.14751 8.48058L2.91459 8.30855C2.88445 8.28624 2.89996 8.23847 2.93746 8.23815L3.22701 8.23594L3.3186 7.96125C3.33042 7.92568 3.38071 7.92568 3.39257 7.96125Z" fill="#F5F5F5"/>
<path d="M3.39257 9.39875L3.48417 9.67344L3.77371 9.67565C3.81121 9.67597 3.82673 9.72379 3.79659 9.74605L3.56367 9.91808L3.65104 10.1941C3.66238 10.2299 3.62165 10.2595 3.59113 10.2376L3.35559 10.0693L3.12004 10.2376C3.08953 10.2594 3.04889 10.2299 3.06014 10.1941L3.14751 9.91808L2.91459 9.74605C2.88445 9.72383 2.89996 9.67597 2.93746 9.67565L3.22701 9.67344L3.3186 9.39875C3.33042 9.36318 3.38071 9.36318 3.39257 9.39875Z" fill="#F5F5F5"/>
<path d="M3.39257 10.8352L3.48417 11.1099L3.77371 11.1121C3.81121 11.1125 3.82673 11.1602 3.79659 11.1825L3.56367 11.3546L3.65104 11.6306C3.66238 11.6663 3.62165 11.696 3.59113 11.6741L3.35559 11.5057L3.12004 11.6741C3.08953 11.6959 3.04889 11.6663 3.06014 11.6306L3.14751 11.3546L2.91459 11.1825C2.88445 11.1602 2.89996 11.1125 2.93746 11.1121L3.22701 11.1099L3.3186 10.8352C3.33042 10.7997 3.38071 10.7997 3.39257 10.8352Z" fill="#F5F5F5"/>
<path d="M4.50756 5.79227L4.59916 6.06696L4.8887 6.06917C4.9262 6.06949 4.94172 6.11731 4.91158 6.13957L4.67866 6.31161L4.76603 6.58765C4.77738 6.62337 4.73664 6.653 4.70613 6.63115L4.47058 6.46278L4.23503 6.63115C4.20452 6.65295 4.16388 6.62337 4.17513 6.58765L4.2625 6.31161L4.02958 6.13957C3.99944 6.11726 4.01495 6.06949 4.05245 6.06917L4.342 6.06696L4.4336 5.79227C4.44536 5.75674 4.4957 5.75674 4.50756 5.79227Z" fill="#F5F5F5"/>
<path d="M4.50756 7.22883L4.59916 7.50352L4.8887 7.50572C4.9262 7.50605 4.94172 7.55386 4.91158 7.57613L4.67866 7.74816L4.76603 8.02421C4.77738 8.05993 4.73664 8.08955 4.70613 8.06771L4.47058 7.89933L4.23503 8.06771C4.20452 8.0895 4.16388 8.05997 4.17513 8.02421L4.2625 7.74816L4.02958 7.57613C3.99944 7.55391 4.01495 7.50605 4.05245 7.50572L4.342 7.50352L4.4336 7.22883C4.44536 7.19325 4.4957 7.19325 4.50756 7.22883Z" fill="#F5F5F5"/>
<path d="M4.50756 8.66633L4.59916 8.94102L4.8887 8.94322C4.9262 8.94355 4.94172 8.99132 4.91158 9.01363L4.67866 9.18566L4.76603 9.46171C4.77738 9.49743 4.73664 9.52705 4.70613 9.50521L4.47058 9.33683L4.23503 9.50521C4.20452 9.52701 4.16388 9.49743 4.17513 9.46171L4.2625 9.18566L4.02958 9.01363C3.99944 8.99132 4.01495 8.94355 4.05245 8.94322L4.342 8.94102L4.4336 8.66633C4.44536 8.63075 4.4957 8.63075 4.50756 8.66633Z" fill="#F5F5F5"/>
<path d="M4.50756 10.1028L4.59916 10.3775L4.8887 10.3797C4.9262 10.38 4.94172 10.4278 4.91158 10.4501L4.67866 10.6221L4.76603 10.8982C4.77738 10.9339 4.73664 10.9635 4.70613 10.9417L4.47058 10.7733L4.23503 10.9417C4.20452 10.9635 4.16388 10.9339 4.17513 10.8982L4.2625 10.6221L4.02958 10.4501C3.99944 10.4278 4.01495 10.38 4.05245 10.3797L4.342 10.3775L4.4336 10.1028C4.44536 10.0673 4.4957 10.0673 4.50756 10.1028Z" fill="#F5F5F5"/>
<path d="M5.62309 5.08771L5.71468 5.3624L6.00423 5.3646C6.04173 5.36493 6.05725 5.41274 6.02711 5.43501L5.79418 5.60699L5.88156 5.88304C5.8929 5.91876 5.85217 5.94838 5.82165 5.92654L5.58606 5.75821L5.35051 5.92659C5.32 5.94843 5.27936 5.91881 5.29061 5.88309L5.37798 5.60704L5.14506 5.43506C5.11492 5.41274 5.13043 5.36493 5.16793 5.36465L5.45748 5.36245L5.54907 5.08776C5.56093 5.05213 5.61123 5.05213 5.62309 5.08771Z" fill="#F5F5F5"/>
<path d="M5.62309 6.5247L5.71468 6.79938L6.00423 6.80159C6.04173 6.80191 6.05725 6.84968 6.02711 6.87199L5.79418 7.04402L5.88156 7.32007C5.8929 7.35579 5.85217 7.38541 5.82165 7.36357L5.58606 7.19519L5.35051 7.36357C5.32 7.38537 5.27936 7.35579 5.29061 7.32007L5.37798 7.04402L5.14506 6.87199C5.11492 6.84968 5.13043 6.80191 5.16793 6.80159L5.45748 6.79938L5.54907 6.5247C5.56093 6.48916 5.61123 6.48916 5.62309 6.5247Z" fill="#F5F5F5"/>
<path d="M5.62309 7.96126L5.71468 8.23595L6.00423 8.23815C6.04173 8.23848 6.05725 8.28624 6.02711 8.30856L5.79418 8.48059L5.88156 8.75663C5.8929 8.79235 5.85217 8.82198 5.82165 8.80014L5.58606 8.63171L5.35051 8.80009C5.32 8.82188 5.27936 8.79231 5.29061 8.75659L5.37798 8.48054L5.14506 8.30851C5.11492 8.2862 5.13043 8.23843 5.16793 8.2381L5.45748 8.2359L5.54907 7.96121C5.56093 7.92568 5.61123 7.92568 5.62309 7.96126Z" fill="#F5F5F5"/>
<path d="M5.62309 9.39875L5.71468 9.67344L6.00423 9.67565C6.04173 9.67597 6.05725 9.72379 6.02711 9.74605L5.79418 9.91808L5.88156 10.1941C5.8929 10.2299 5.85217 10.2595 5.82165 10.2376L5.58606 10.0693L5.35051 10.2376C5.32 10.2594 5.27936 10.2299 5.29061 10.1941L5.37798 9.91808L5.14506 9.74605C5.11492 9.72383 5.13043 9.67597 5.16793 9.67565L5.45748 9.67344L5.54907 9.39875C5.56093 9.36318 5.61123 9.36318 5.62309 9.39875Z" fill="#F5F5F5"/>
<path d="M5.62309 10.8352L5.71468 11.1099L6.00423 11.1121C6.04173 11.1125 6.05725 11.1602 6.02711 11.1825L5.79418 11.3546L5.88156 11.6306C5.8929 11.6663 5.85217 11.696 5.82165 11.6741L5.58606 11.5057L5.35051 11.6741C5.32 11.6959 5.27936 11.6663 5.29061 11.6306L5.37798 11.3546L5.14506 11.1825C5.11492 11.1602 5.13043 11.1125 5.16793 11.1121L5.45748 11.1099L5.54907 10.8352C5.56093 10.7997 5.61123 10.7997 5.62309 10.8352Z" fill="#F5F5F5"/>
<path d="M6.73827 5.79227L6.82987 6.06696L7.11941 6.06917C7.15691 6.06949 7.17243 6.11731 7.14228 6.13957L6.90936 6.31161L6.99674 6.58765C7.00808 6.62337 6.96735 6.653 6.93683 6.63115L6.70129 6.46278L6.46574 6.63115C6.43523 6.65295 6.39459 6.62337 6.40584 6.58765L6.49321 6.31161L6.26029 6.13957C6.23015 6.11726 6.24567 6.06949 6.28317 6.06917L6.57271 6.06696L6.6643 5.79227C6.67616 5.75674 6.72641 5.75674 6.73827 5.79227Z" fill="#F5F5F5"/>
<path d="M6.73827 7.22883L6.82987 7.50352L7.11941 7.50572C7.15691 7.50605 7.17243 7.55386 7.14228 7.57613L6.90936 7.74816L6.99674 8.02421C7.00808 8.05993 6.96735 8.08955 6.93683 8.06771L6.70129 7.89933L6.46574 8.06771C6.43523 8.0895 6.39459 8.05997 6.40584 8.02421L6.49321 7.74816L6.26029 7.57613C6.23015 7.55391 6.24567 7.50605 6.28317 7.50572L6.57271 7.50352L6.6643 7.22883C6.67616 7.19325 6.72641 7.19325 6.73827 7.22883Z" fill="#F5F5F5"/>
<path d="M6.73827 8.66633L6.82987 8.94102L7.11941 8.94322C7.15691 8.94355 7.17243 8.99132 7.14228 9.01363L6.90936 9.18566L6.99674 9.46171C7.00808 9.49743 6.96735 9.52705 6.93683 9.50521L6.70129 9.33683L6.46574 9.50521C6.43523 9.52701 6.39459 9.49743 6.40584 9.46171L6.49321 9.18566L6.26029 9.01363C6.23015 8.99132 6.24567 8.94355 6.28317 8.94322L6.57271 8.94102L6.6643 8.66633C6.67616 8.63075 6.72641 8.63075 6.73827 8.66633Z" fill="#F5F5F5"/>
<path d="M6.73827 10.1028L6.82987 10.3775L7.11941 10.3797C7.15691 10.38 7.17243 10.4278 7.14228 10.4501L6.90936 10.6221L6.99674 10.8982C7.00808 10.9339 6.96735 10.9635 6.93683 10.9417L6.70129 10.7733L6.46574 10.9417C6.43523 10.9635 6.39459 10.9339 6.40584 10.8982L6.49321 10.6221L6.26029 10.4501C6.23015 10.4278 6.24567 10.38 6.28317 10.3797L6.57271 10.3775L6.6643 10.1028C6.67616 10.0673 6.72641 10.0673 6.73827 10.1028Z" fill="#F5F5F5"/>
<path d="M7.85375 5.08772L7.94534 5.36241L8.23489 5.36461C8.27239 5.36494 8.2879 5.41275 8.25776 5.43502L8.02484 5.607L8.11222 5.88305C8.12356 5.91877 8.08283 5.94839 8.05231 5.92655L7.81677 5.75817L7.58122 5.92655C7.55071 5.94839 7.51007 5.91877 7.52132 5.88305L7.60869 5.607L7.37577 5.43502C7.34563 5.4127 7.36115 5.36489 7.39865 5.36461L7.68819 5.36241L7.77978 5.08772C7.79155 5.05214 7.84189 5.05214 7.85375 5.08772Z" fill="#F5F5F5"/>
<path d="M7.85375 6.5247L7.94534 6.79938L8.23489 6.80159C8.27239 6.80191 8.2879 6.84968 8.25776 6.87199L8.02484 7.04402L8.11222 7.32007C8.12356 7.35579 8.08283 7.38541 8.05231 7.36357L7.81677 7.19519L7.58122 7.36357C7.55071 7.38537 7.51007 7.35579 7.52132 7.32007L7.60869 7.04402L7.37577 6.87199C7.34563 6.84968 7.36115 6.80191 7.39865 6.80159L7.68819 6.79938L7.77978 6.5247C7.79155 6.48916 7.84189 6.48916 7.85375 6.5247Z" fill="#F5F5F5"/>
<path d="M7.85375 7.96125L7.94534 8.23594L8.23489 8.23815C8.27239 8.23847 8.2879 8.28624 8.25776 8.30855L8.02484 8.48058L8.11222 8.75663C8.12356 8.79235 8.08283 8.82197 8.05231 8.80013L7.81677 8.63175L7.58122 8.80013C7.55071 8.82193 7.51007 8.79239 7.52132 8.75663L7.60869 8.48058L7.37577 8.30855C7.34563 8.28624 7.36115 8.23847 7.39865 8.23815L7.68819 8.23594L7.77978 7.96125C7.79155 7.92568 7.84189 7.92568 7.85375 7.96125Z" fill="#F5F5F5"/>
<path d="M7.85375 9.39875L7.94534 9.67344L8.23489 9.67565C8.27239 9.67597 8.2879 9.72379 8.25776 9.74605L8.02484 9.91808L8.11222 10.1941C8.12356 10.2299 8.08283 10.2595 8.05231 10.2376L7.81677 10.0693L7.58122 10.2376C7.55071 10.2594 7.51007 10.2299 7.52132 10.1941L7.60869 9.91808L7.37577 9.74605C7.34563 9.72383 7.36115 9.67597 7.39865 9.67565L7.68819 9.67344L7.77978 9.39875C7.79155 9.36318 7.84189 9.36318 7.85375 9.39875Z" fill="#F5F5F5"/>
<path d="M7.85375 10.8352L7.94534 11.1099L8.23489 11.1121C8.27239 11.1125 8.2879 11.1602 8.25776 11.1825L8.02484 11.3546L8.11222 11.6306C8.12356 11.6663 8.08283 11.696 8.05231 11.6741L7.81677 11.5057L7.58122 11.6741C7.55071 11.6959 7.51007 11.6663 7.52132 11.6306L7.60869 11.3546L7.37577 11.1825C7.34563 11.1602 7.36115 11.1125 7.39865 11.1121L7.68819 11.1099L7.77978 10.8352C7.79155 10.7997 7.84189 10.7997 7.85375 10.8352Z" fill="#F5F5F5"/>
<path d="M8.96899 5.79227L9.06058 6.06696L9.35013 6.06917C9.38763 6.06949 9.40314 6.11731 9.373 6.13957L9.14008 6.31161L9.22745 6.58765C9.2388 6.62337 9.19806 6.653 9.16755 6.63115L8.932 6.46278L8.69646 6.63115C8.66594 6.65295 8.6253 6.62337 8.63655 6.58765L8.72393 6.31161L8.49101 6.13957C8.46086 6.11726 8.47638 6.06949 8.51388 6.06917L8.80343 6.06696L8.89502 5.79227C8.90683 5.75674 8.95713 5.75674 8.96899 5.79227Z" fill="#F5F5F5"/>
<path d="M8.96899 7.22883L9.06058 7.50352L9.35013 7.50572C9.38763 7.50605 9.40314 7.55386 9.373 7.57613L9.14008 7.74816L9.22745 8.02421C9.2388 8.05993 9.19806 8.08955 9.16755 8.06771L8.932 7.89933L8.69646 8.06771C8.66594 8.0895 8.6253 8.05997 8.63655 8.02421L8.72393 7.74816L8.49101 7.57613C8.46086 7.55391 8.47638 7.50605 8.51388 7.50572L8.80343 7.50352L8.89502 7.22883C8.90683 7.19325 8.95713 7.19325 8.96899 7.22883Z" fill="#F5F5F5"/>
<path d="M8.96899 8.66633L9.06058 8.94102L9.35013 8.94322C9.38763 8.94355 9.40314 8.99132 9.373 9.01363L9.14008 9.18566L9.22745 9.46171C9.2388 9.49743 9.19806 9.52705 9.16755 9.50521L8.932 9.33683L8.69646 9.50521C8.66594 9.52701 8.6253 9.49743 8.63655 9.46171L8.72393 9.18566L8.49101 9.01363C8.46086 8.99132 8.47638 8.94355 8.51388 8.94322L8.80343 8.94102L8.89502 8.66633C8.90683 8.63075 8.95713 8.63075 8.96899 8.66633Z" fill="#F5F5F5"/>
<path d="M8.96899 10.1028L9.06058 10.3775L9.35013 10.3797C9.38763 10.38 9.40314 10.4278 9.373 10.4501L9.14008 10.6221L9.22745 10.8982C9.2388 10.9339 9.19806 10.9635 9.16755 10.9417L8.932 10.7733L8.69646 10.9417C8.66594 10.9635 8.6253 10.9339 8.63655 10.8982L8.72393 10.6221L8.49101 10.4501C8.46086 10.4278 8.47638 10.38 8.51388 10.3797L8.80343 10.3775L8.89502 10.1028C8.90683 10.0673 8.95713 10.0673 8.96899 10.1028Z" fill="#F5F5F5"/>
<path d="M10.0845 5.08772L10.1761 5.36241L10.4656 5.36461C10.5031 5.36494 10.5186 5.41275 10.4885 5.43502L10.2556 5.607L10.3429 5.88305C10.3543 5.91877 10.3135 5.94839 10.283 5.92655L10.0475 5.75817L9.81194 5.92655C9.78142 5.94839 9.74078 5.91877 9.75203 5.88305L9.83941 5.607L9.60648 5.43502C9.57634 5.4127 9.59186 5.36489 9.62936 5.36461L9.91891 5.36241L10.0105 5.08772C10.0223 5.05214 10.0726 5.05214 10.0845 5.08772Z" fill="#F5F5F5"/>
<path d="M10.0845 6.5247L10.1761 6.79938L10.4656 6.80159C10.5031 6.80191 10.5186 6.84968 10.4885 6.87199L10.2556 7.04402L10.3429 7.32007C10.3543 7.35579 10.3135 7.38541 10.283 7.36357L10.0475 7.19519L9.81194 7.36357C9.78142 7.38537 9.74078 7.35579 9.75203 7.32007L9.83941 7.04402L9.60648 6.87199C9.57634 6.84968 9.59186 6.80191 9.62936 6.80159L9.91891 6.79938L10.0105 6.5247C10.0223 6.48916 10.0726 6.48916 10.0845 6.5247Z" fill="#F5F5F5"/>
<path d="M10.0845 7.96125L10.1761 8.23594L10.4656 8.23815C10.5031 8.23847 10.5186 8.28624 10.4885 8.30855L10.2556 8.48058L10.3429 8.75663C10.3543 8.79235 10.3135 8.82197 10.283 8.80013L10.0475 8.63175L9.81194 8.80013C9.78142 8.82193 9.74078 8.79239 9.75203 8.75663L9.83941 8.48058L9.60648 8.30855C9.57634 8.28624 9.59186 8.23847 9.62936 8.23815L9.91891 8.23594L10.0105 7.96125C10.0223 7.92568 10.0726 7.92568 10.0845 7.96125Z" fill="#F5F5F5"/>
<path d="M10.0845 9.39875L10.1761 9.67344L10.4656 9.67565C10.5031 9.67597 10.5186 9.72379 10.4885 9.74605L10.2556 9.91808L10.3429 10.1941C10.3543 10.2299 10.3135 10.2595 10.283 10.2376L10.0475 10.0693L9.81194 10.2376C9.78142 10.2594 9.74078 10.2299 9.75203 10.1941L9.83941 9.91808L9.60648 9.74605C9.57634 9.72383 9.59186 9.67597 9.62936 9.67565L9.91891 9.67344L10.0105 9.39875C10.0223 9.36318 10.0726 9.36318 10.0845 9.39875Z" fill="#F5F5F5"/>
<path d="M10.0845 10.8352L10.1761 11.1099L10.4656 11.1121C10.5031 11.1125 10.5186 11.1602 10.4885 11.1825L10.2556 11.3546L10.3429 11.6306C10.3543 11.6663 10.3135 11.696 10.283 11.6741L10.0475 11.5057L9.81194 11.6741C9.78142 11.6959 9.74078 11.6663 9.75203 11.6306L9.83941 11.3546L9.60648 11.1825C9.57634 11.1602 9.59186 11.1125 9.62936 11.1121L9.91891 11.1099L10.0105 10.8352C10.0223 10.7997 10.0726 10.7997 10.0845 10.8352Z" fill="#F5F5F5"/>
</svg>
