<svg width="398" height="33" viewBox="0 0 398 33" fill="none" xmlns="http://www.w3.org/2000/svg">
<mask id="mask0" mask-type="alpha" maskUnits="userSpaceOnUse" x="0" y="0" width="398" height="33">
<rect width="398" height="33" fill="#C4C4C4"/>
</mask>
<g mask="url(#mask0)">
<path d="M-233.889 19C-237.221 19 -238.827 17.8984 -240.433 16.8984C-241.914 15.8984 -243.394 15 -246.235 15C-249.075 15 -250.556 15.8984 -252.036 16.8984C-253.642 17.8984 -255.248 19 -258.58 19C-261.913 19 -263.518 17.8984 -265.124 16.8984C-266.605 15.8984 -268.085 15 -270.926 15C-273.766 15 -275.247 15.8984 -276.727 16.8984C-278.333 17.8984 -279.939 19 -283.272 19C-286.604 19 -288.21 17.8984 -289.816 16.8984C-291.296 15.8984 -292.777 15 -295.617 15C-298.458 15 -299.938 15.8984 -301.419 16.8984C-303.025 17.8984 -304.631 19 -307.963 19C-311.295 19 -312.901 17.8984 -314.507 16.8984C-315.988 15.8984 -317.468 15 -320.309 15C-323.149 15 -324.63 15.8984 -326.11 16.8984C-327.716 17.8984 -329.322 19 -332.654 19C-335.987 19 -337.593 17.8984 -339.199 16.8984C-340.679 15.8984 -342.16 15 -345 15V14C-341.668 14 -340.062 15.1016 -338.456 16.1016C-336.975 17.1016 -335.495 18 -332.654 18C-329.814 18 -328.333 17.1016 -326.853 16.1016C-325.247 15.1016 -323.641 14 -320.309 14C-316.976 14 -315.37 15.1016 -313.764 16.1016C-312.284 17.1016 -310.804 18 -307.963 18C-305.123 18 -303.642 17.1016 -302.161 16.1016C-300.556 15.1016 -298.95 14 -295.617 14C-292.285 14 -290.679 15.1016 -289.073 16.1016C-287.593 17.1016 -286.112 18 -283.272 18C-280.431 18 -278.951 17.1016 -277.47 16.1016C-275.864 15.1016 -274.258 14 -270.926 14C-267.594 14 -265.988 15.1016 -264.382 16.1016C-262.901 17.1016 -261.421 18 -258.58 18C-255.74 18 -254.259 17.1016 -252.779 16.1016C-251.173 15.1016 -249.567 14 -246.235 14C-242.902 14 -241.296 15.1016 -239.69 16.1016C-238.21 17.1016 -236.729 18 -233.889 18V19Z" fill="#E6E6E6"/>
<path d="M-135.123 19C-138.456 19 -140.062 17.8984 -141.668 16.8984C-143.148 15.8984 -144.629 15 -147.469 15C-150.31 15 -151.79 15.8984 -153.271 16.8984C-154.877 17.8984 -156.482 19 -159.815 19C-163.147 19 -164.753 17.8984 -166.359 16.8984C-167.84 15.8984 -169.32 15 -172.16 15C-175.001 15 -176.481 15.8984 -177.962 16.8984C-179.568 17.8984 -181.174 19 -184.506 19C-187.839 19 -189.444 17.8984 -191.05 16.8984C-192.531 15.8984 -194.011 15 -196.852 15C-199.692 15 -201.173 15.8984 -202.653 16.8984C-204.259 17.8984 -205.865 19 -209.198 19C-212.53 19 -214.136 17.8984 -215.742 16.8984C-217.222 15.8984 -218.703 15 -221.543 15C-224.384 15 -225.864 15.8984 -227.345 16.8984C-228.951 17.8984 -230.557 19 -233.889 19C-237.221 19 -238.827 17.8984 -240.433 16.8984C-241.914 15.8984 -243.394 15 -246.235 15V14C-242.902 14 -241.296 15.1016 -239.69 16.1016C-238.21 17.1016 -236.729 18 -233.889 18C-231.048 18 -229.568 17.1016 -228.087 16.1016C-226.481 15.1016 -224.876 14 -221.543 14C-218.211 14 -216.605 15.1016 -214.999 16.1016C-213.519 17.1016 -212.038 18 -209.198 18C-206.357 18 -204.877 17.1016 -203.396 16.1016C-201.79 15.1016 -200.184 14 -196.852 14C-193.52 14 -191.914 15.1016 -190.308 16.1016C-188.827 17.1016 -187.347 18 -184.506 18C-181.666 18 -180.185 17.1016 -178.705 16.1016C-177.099 15.1016 -175.493 14 -172.16 14C-168.828 14 -167.222 15.1016 -165.616 16.1016C-164.136 17.1016 -162.655 18 -159.815 18C-156.974 18 -155.494 17.1016 -154.013 16.1016C-152.407 15.1016 -150.801 14 -147.469 14C-144.137 14 -142.531 15.1016 -140.925 16.1016C-139.444 17.1016 -137.964 18 -135.123 18V19Z" fill="#E6E6E6"/>
<path d="M-36.358 19C-39.69 19 -41.296 17.8984 -42.902 16.8984C-44.383 15.8984 -45.863 15 -48.704 15C-51.544 15 -53.025 15.8984 -54.505 16.8984C-56.111 17.8984 -57.717 19 -61.049 19C-64.382 19 -65.988 17.8984 -67.594 16.8984C-69.074 15.8984 -70.555 15 -73.395 15C-76.236 15 -77.716 15.8984 -79.197 16.8984C-80.802 17.8984 -82.408 19 -85.741 19C-89.073 19 -90.679 17.8984 -92.285 16.8984C-93.765 15.8984 -95.246 15 -98.086 15C-100.927 15 -102.407 15.8984 -103.888 16.8984C-105.494 17.8984 -107.1 19 -110.432 19C-113.764 19 -115.37 17.8984 -116.976 16.8984C-118.457 15.8984 -119.937 15 -122.778 15C-125.618 15 -127.099 15.8984 -128.579 16.8984C-130.185 17.8984 -131.791 19 -135.123 19C-138.456 19 -140.062 17.8984 -141.668 16.8984C-143.148 15.8984 -144.629 15 -147.469 15V14C-144.137 14 -142.531 15.1016 -140.925 16.1016C-139.444 17.1016 -137.964 18 -135.123 18C-132.283 18 -130.802 17.1016 -129.322 16.1016C-127.716 15.1016 -126.11 14 -122.778 14C-119.445 14 -117.84 15.1016 -116.234 16.1016C-114.753 17.1016 -113.273 18 -110.432 18C-107.592 18 -106.111 17.1016 -104.631 16.1016C-103.025 15.1016 -101.419 14 -98.086 14C-94.754 14 -93.148 15.1016 -91.542 16.1016C-90.062 17.1016 -88.581 18 -85.741 18C-82.9 18 -81.42 17.1016 -79.939 16.1016C-78.333 15.1016 -76.727 14 -73.395 14C-70.063 14 -68.457 15.1016 -66.851 16.1016C-65.37 17.1016 -63.89 18 -61.049 18C-58.209 18 -56.728 17.1016 -55.248 16.1016C-53.642 15.1016 -52.036 14 -48.704 14C-45.371 14 -43.765 15.1016 -42.16 16.1016C-40.679 17.1016 -39.199 18 -36.358 18V19Z" fill="#E6E6E6"/>
<path d="M62.407 19C59.075 19 57.469 17.8984 55.863 16.8984C54.383 15.8984 52.902 15 50.062 15C47.221 15 45.741 15.8984 44.26 16.8984C42.654 17.8984 41.048 19 37.716 19C34.384 19 32.778 17.8984 31.172 16.8984C29.691 15.8984 28.211 15 25.37 15C22.53 15 21.049 15.8984 19.569 16.8984C17.963 17.8984 16.357 19 13.025 19C9.69199 19 8.08601 17.8984 6.48001 16.8984C5.00001 15.8984 3.51999 15 0.678986 15C-2.16101 15 -3.64201 15.8984 -5.12201 16.8984C-6.72801 17.8984 -8.33399 19 -11.667 19C-14.999 19 -16.605 17.8984 -18.211 16.8984C-19.691 15.8984 -21.172 15 -24.012 15C-26.853 15 -28.333 15.8984 -29.814 16.8984C-31.42 17.8984 -33.026 19 -36.358 19C-39.69 19 -41.296 17.8984 -42.902 16.8984C-44.383 15.8984 -45.863 15 -48.704 15V14C-45.371 14 -43.765 15.1016 -42.16 16.1016C-40.679 17.1016 -39.199 18 -36.358 18C-33.518 18 -32.037 17.1016 -30.557 16.1016C-28.951 15.1016 -27.345 14 -24.012 14C-20.68 14 -19.074 15.1016 -17.468 16.1016C-15.988 17.1016 -14.507 18 -11.667 18C-8.82599 18 -7.34599 17.1016 -5.86499 16.1016C-4.25899 15.1016 -2.65301 14 0.678986 14C4.01099 14 5.61699 15.1016 7.22299 16.1016C8.70399 17.1016 10.184 18 13.025 18C15.865 18 17.346 17.1016 18.826 16.1016C20.432 15.1016 22.038 14 25.37 14C28.703 14 30.309 15.1016 31.915 16.1016C33.395 17.1016 34.876 18 37.716 18C40.557 18 42.037 17.1016 43.518 16.1016C45.123 15.1016 46.729 14 50.062 14C53.394 14 55 15.1016 56.606 16.1016C58.086 17.1016 59.567 18 62.407 18V19Z" fill="#E6E6E6"/>
<path d="M161.173 19C157.84 19 156.235 17.8984 154.629 16.8984C153.148 15.8984 151.668 15 148.827 15C145.987 15 144.506 15.8984 143.026 16.8984C141.42 17.8984 139.814 19 136.481 19C133.149 19 131.543 17.8984 129.937 16.8984C128.457 15.8984 126.976 15 124.136 15C121.295 15 119.815 15.8984 118.334 16.8984C116.728 17.8984 115.122 19 111.79 19C108.458 19 106.852 17.8984 105.246 16.8984C103.765 15.8984 102.285 15 99.444 15C96.604 15 95.123 15.8984 93.643 16.8984C92.037 17.8984 90.431 19 87.099 19C83.766 19 82.16 17.8984 80.555 16.8984C79.074 15.8984 77.594 15 74.753 15C71.913 15 70.432 15.8984 68.952 16.8984C67.346 17.8984 65.74 19 62.407 19C59.075 19 57.469 17.8984 55.863 16.8984C54.383 15.8984 52.902 15 50.062 15V14C53.394 14 55 15.1016 56.606 16.1016C58.086 17.1016 59.567 18 62.407 18C65.248 18 66.728 17.1016 68.209 16.1016C69.815 15.1016 71.421 14 74.753 14C78.085 14 79.691 15.1016 81.297 16.1016C82.778 17.1016 84.258 18 87.099 18C89.939 18 91.42 17.1016 92.9 16.1016C94.506 15.1016 96.112 14 99.444 14C102.777 14 104.383 15.1016 105.989 16.1016C107.469 17.1016 108.95 18 111.79 18C114.631 18 116.111 17.1016 117.592 16.1016C119.198 15.1016 120.803 14 124.136 14C127.468 14 129.074 15.1016 130.68 16.1016C132.16 17.1016 133.641 18 136.481 18C139.322 18 140.802 17.1016 142.283 16.1016C143.889 15.1016 145.495 14 148.827 14C152.159 14 153.765 15.1016 155.371 16.1016C156.852 17.1016 158.332 18 161.173 18V19Z" fill="#E6E6E6"/>
<path d="M259.938 19C256.606 19 255 17.8984 253.394 16.8984C251.914 15.8984 250.433 15 247.593 15C244.752 15 243.272 15.8984 241.791 16.8984C240.185 17.8984 238.579 19 235.247 19C231.915 19 230.309 17.8984 228.703 16.8984C227.222 15.8984 225.742 15 222.901 15C220.061 15 218.58 15.8984 217.1 16.8984C215.494 17.8984 213.888 19 210.556 19C207.223 19 205.617 17.8984 204.011 16.8984C202.531 15.8984 201.05 15 198.21 15C195.369 15 193.889 15.8984 192.408 16.8984C190.802 17.8984 189.197 19 185.864 19C182.532 19 180.926 17.8984 179.32 16.8984C177.839 15.8984 176.359 15 173.519 15C170.678 15 169.198 15.8984 167.717 16.8984C166.111 17.8984 164.505 19 161.173 19C157.84 19 156.235 17.8984 154.629 16.8984C153.148 15.8984 151.668 15 148.827 15V14C152.159 14 153.765 15.1016 155.371 16.1016C156.852 17.1016 158.332 18 161.173 18C164.013 18 165.494 17.1016 166.974 16.1016C168.58 15.1016 170.186 14 173.519 14C176.851 14 178.457 15.1016 180.063 16.1016C181.543 17.1016 183.024 18 185.864 18C188.705 18 190.185 17.1016 191.666 16.1016C193.272 15.1016 194.878 14 198.21 14C201.542 14 203.148 15.1016 204.754 16.1016C206.235 17.1016 207.715 18 210.556 18C213.396 18 214.877 17.1016 216.357 16.1016C217.963 15.1016 219.569 14 222.901 14C226.234 14 227.839 15.1016 229.445 16.1016C230.926 17.1016 232.406 18 235.247 18C238.087 18 239.568 17.1016 241.048 16.1016C242.654 15.1016 244.26 14 247.593 14C250.925 14 252.531 15.1016 254.137 16.1016C255.617 17.1016 257.098 18 259.938 18V19Z" fill="#E6E6E6"/>
<path d="M358.704 19C355.371 19 353.765 17.8984 352.16 16.8984C350.679 15.8984 349.199 15 346.358 15C343.518 15 342.037 15.8984 340.557 16.8984C338.951 17.8984 337.345 19 334.012 19C330.68 19 329.074 17.8984 327.468 16.8984C325.988 15.8984 324.507 15 321.667 15C318.826 15 317.346 15.8984 315.865 16.8984C314.259 17.8984 312.653 19 309.321 19C305.989 19 304.383 17.8984 302.777 16.8984C301.296 15.8984 299.816 15 296.975 15C294.135 15 292.654 15.8984 291.174 16.8984C289.568 17.8984 287.962 19 284.63 19C281.297 19 279.691 17.8984 278.085 16.8984C276.605 15.8984 275.124 15 272.284 15C269.443 15 267.963 15.8984 266.482 16.8984C264.877 17.8984 263.271 19 259.938 19C256.606 19 255 17.8984 253.394 16.8984C251.914 15.8984 250.433 15 247.593 15V14C250.925 14 252.531 15.1016 254.137 16.1016C255.617 17.1016 257.098 18 259.938 18C262.779 18 264.259 17.1016 265.74 16.1016C267.346 15.1016 268.952 14 272.284 14C275.616 14 277.222 15.1016 278.828 16.1016C280.309 17.1016 281.789 18 284.63 18C287.47 18 288.951 17.1016 290.431 16.1016C292.037 15.1016 293.643 14 296.975 14C300.308 14 301.914 15.1016 303.519 16.1016C305 17.1016 306.48 18 309.321 18C312.161 18 313.642 17.1016 315.122 16.1016C316.728 15.1016 318.334 14 321.667 14C324.999 14 326.605 15.1016 328.211 16.1016C329.691 17.1016 331.172 18 334.012 18C336.853 18 338.333 17.1016 339.814 16.1016C341.42 15.1016 343.026 14 346.358 14C349.69 14 351.296 15.1016 352.902 16.1016C354.383 17.1016 355.863 18 358.704 18V19Z" fill="#E6E6E6"/>
<path d="M457.469 19C454.137 19 452.531 17.8984 450.925 16.8984C449.444 15.8984 447.964 15 445.123 15C442.283 15 440.802 15.8984 439.322 16.8984C437.716 17.8984 436.11 19 432.778 19C429.445 19 427.84 17.8984 426.234 16.8984C424.753 15.8984 423.273 15 420.432 15C417.592 15 416.111 15.8984 414.631 16.8984C413.025 17.8984 411.419 19 408.086 19C404.754 19 403.148 17.8984 401.542 16.8984C400.062 15.8984 398.581 15 395.741 15C392.9 15 391.42 15.8984 389.939 16.8984C388.333 17.8984 386.727 19 383.395 19C380.063 19 378.457 17.8984 376.851 16.8984C375.37 15.8984 373.89 15 371.049 15C368.209 15 366.728 15.8984 365.248 16.8984C363.642 17.8984 362.036 19 358.704 19C355.371 19 353.765 17.8984 352.16 16.8984C350.679 15.8984 349.199 15 346.358 15V14C349.69 14 351.296 15.1016 352.902 16.1016C354.383 17.1016 355.863 18 358.704 18C361.544 18 363.025 17.1016 364.505 16.1016C366.111 15.1016 367.717 14 371.049 14C374.382 14 375.988 15.1016 377.594 16.1016C379.074 17.1016 380.555 18 383.395 18C386.236 18 387.716 17.1016 389.197 16.1016C390.802 15.1016 392.408 14 395.741 14C399.073 14 400.679 15.1016 402.285 16.1016C403.765 17.1016 405.246 18 408.086 18C410.927 18 412.407 17.1016 413.888 16.1016C415.494 15.1016 417.1 14 420.432 14C423.764 14 425.37 15.1016 426.976 16.1016C428.457 17.1016 429.937 18 432.778 18C435.618 18 437.099 17.1016 438.579 16.1016C440.185 15.1016 441.791 14 445.123 14C448.456 14 450.062 15.1016 451.668 16.1016C453.148 17.1016 454.629 18 457.469 18V19Z" fill="#E6E6E6"/>
<path d="M556.235 19C552.902 19 551.296 17.8984 549.69 16.8984C548.21 15.8984 546.729 15 543.889 15C541.048 15 539.568 15.8984 538.087 16.8984C536.481 17.8984 534.876 19 531.543 19C528.211 19 526.605 17.8984 524.999 16.8984C523.519 15.8984 522.038 15 519.198 15C516.357 15 514.877 15.8984 513.396 16.8984C511.79 17.8984 510.184 19 506.852 19C503.519 19 501.914 17.8984 500.308 16.8984C498.827 15.8984 497.347 15 494.506 15C491.666 15 490.185 15.8984 488.705 16.8984C487.099 17.8984 485.493 19 482.16 19C478.828 19 477.222 17.8984 475.616 16.8984C474.136 15.8984 472.655 15 469.815 15C466.974 15 465.494 15.8984 464.013 16.8984C462.407 17.8984 460.801 19 457.469 19C454.137 19 452.531 17.8984 450.925 16.8984C449.444 15.8984 447.964 15 445.123 15V14C448.456 14 450.062 15.1016 451.668 16.1016C453.148 17.1016 454.629 18 457.469 18C460.31 18 461.79 17.1016 463.271 16.1016C464.877 15.1016 466.482 14 469.815 14C473.147 14 474.753 15.1016 476.359 16.1016C477.839 17.1016 479.32 18 482.16 18C485.001 18 486.481 17.1016 487.962 16.1016C489.568 15.1016 491.174 14 494.506 14C497.839 14 499.444 15.1016 501.05 16.1016C502.531 17.1016 504.011 18 506.852 18C509.692 18 511.173 17.1016 512.653 16.1016C514.259 15.1016 515.865 14 519.198 14C522.53 14 524.136 15.1016 525.742 16.1016C527.222 17.1016 528.703 18 531.543 18C534.384 18 535.864 17.1016 537.345 16.1016C538.951 15.1016 540.557 14 543.889 14C547.221 14 548.827 15.1016 550.433 16.1016C551.914 17.1016 553.394 18 556.235 18V19Z" fill="#E6E6E6"/>
<path d="M655 19C651.668 19 650.062 17.8984 648.456 16.8984C646.975 15.8984 645.495 15 642.654 15C639.814 15 638.333 15.8984 636.853 16.8984C635.247 17.8984 633.641 19 630.309 19C626.976 19 625.37 17.8984 623.764 16.8984C622.284 15.8984 620.803 15 617.963 15C615.122 15 613.642 15.8984 612.161 16.8984C610.556 17.8984 608.95 19 605.617 19C602.285 19 600.679 17.8984 599.073 16.8984C597.593 15.8984 596.112 15 593.272 15C590.431 15 588.951 15.8984 587.47 16.8984C585.864 17.8984 584.258 19 580.926 19C577.594 19 575.988 17.8984 574.382 16.8984C572.901 15.8984 571.421 15 568.58 15C565.74 15 564.259 15.8984 562.779 16.8984C561.173 17.8984 559.567 19 556.235 19C552.902 19 551.296 17.8984 549.69 16.8984C548.21 15.8984 546.729 15 543.889 15V14C547.221 14 548.827 15.1016 550.433 16.1016C551.914 17.1016 553.394 18 556.235 18C559.075 18 560.556 17.1016 562.036 16.1016C563.642 15.1016 565.248 14 568.58 14C571.913 14 573.518 15.1016 575.124 16.1016C576.605 17.1016 578.085 18 580.926 18C583.766 18 585.247 17.1016 586.727 16.1016C588.333 15.1016 589.939 14 593.272 14C596.604 14 598.21 15.1016 599.816 16.1016C601.296 17.1016 602.777 18 605.617 18C608.458 18 609.938 17.1016 611.419 16.1016C613.025 15.1016 614.631 14 617.963 14C621.295 14 622.901 15.1016 624.507 16.1016C625.988 17.1016 627.468 18 630.309 18C633.149 18 634.63 17.1016 636.11 16.1016C637.716 15.1016 639.322 14 642.654 14C645.987 14 647.593 15.1016 649.198 16.1016C650.679 17.1016 652.159 18 655 18V19Z" fill="#E6E6E6"/>
</g>
</svg>
