<svg width="86" height="25" viewBox="0 0 86 25" fill="none" xmlns="http://www.w3.org/2000/svg">
<path d="M38.134 5.608H44.092C45.652 5.608 46.846 6.022 47.674 6.85C48.082 7.258 48.394 7.732 48.61 8.272C48.838 8.8 48.952 9.394 48.952 10.054C48.952 10.69 48.844 11.272 48.628 11.8C48.424 12.328 48.124 12.784 47.728 13.168C47.344 13.54 46.876 13.834 46.324 14.05C45.772 14.254 45.148 14.356 44.452 14.356H41.248V19H38.134V5.608ZM41.248 11.926H43.858C44.506 11.926 44.998 11.758 45.334 11.422C45.682 11.086 45.856 10.63 45.856 10.054C45.856 9.466 45.682 9.016 45.334 8.704C44.998 8.38 44.512 8.218 43.876 8.218H41.248V11.926ZM55.7068 19C55.6348 18.892 55.5688 18.742 55.5088 18.55C55.4488 18.346 55.4068 18.106 55.3828 17.83H55.3468C55.0348 18.274 54.6568 18.622 54.2128 18.874C53.7808 19.126 53.1928 19.252 52.4488 19.252C51.9808 19.252 51.5428 19.186 51.1348 19.054C50.7388 18.934 50.3908 18.754 50.0908 18.514C49.8028 18.274 49.5748 17.974 49.4068 17.614C49.2508 17.242 49.1728 16.822 49.1728 16.354C49.1728 15.826 49.2688 15.388 49.4608 15.04C49.6648 14.692 49.9348 14.41 50.2708 14.194C50.6068 13.978 51.0028 13.816 51.4588 13.708C51.9148 13.588 52.4068 13.498 52.9348 13.438C53.7868 13.318 54.3988 13.174 54.7708 13.006C55.1548 12.838 55.3468 12.574 55.3468 12.214C55.3468 11.866 55.2328 11.59 55.0048 11.386C54.7768 11.17 54.4168 11.062 53.9248 11.062C53.3848 11.062 52.9768 11.176 52.7008 11.404C52.4368 11.632 52.2868 11.938 52.2508 12.322H49.6408C49.6528 11.914 49.7488 11.518 49.9288 11.134C50.1088 10.75 50.3728 10.414 50.7208 10.126C51.0688 9.826 51.5068 9.592 52.0348 9.424C52.5628 9.244 53.1808 9.154 53.8888 9.154C54.5008 9.154 55.0288 9.202 55.4728 9.298C55.9168 9.382 56.3068 9.526 56.6428 9.73C57.1468 10.018 57.5128 10.408 57.7408 10.9C57.9808 11.38 58.1008 11.944 58.1008 12.592V17.506C58.1008 18.238 58.2208 18.682 58.4608 18.838V19H55.7068ZM53.3308 17.398C53.9668 17.398 54.4708 17.224 54.8428 16.876C55.2268 16.528 55.4188 16.09 55.4188 15.562V14.32C55.2148 14.452 54.9628 14.56 54.6628 14.644C54.3748 14.716 54.0748 14.788 53.7628 14.86C53.1388 14.992 52.6768 15.154 52.3768 15.346C52.0768 15.538 51.9268 15.844 51.9268 16.264C51.9268 16.684 52.0648 16.978 52.3408 17.146C52.6168 17.314 52.9468 17.398 53.3308 17.398ZM65.4302 19.306C64.7822 19.306 64.2002 19.168 63.6842 18.892C63.1802 18.616 62.7902 18.184 62.5142 17.596H62.4782V19H59.7602V5.608H62.5862V8.542C62.5862 8.95 62.5742 9.352 62.5502 9.748C62.5382 10.132 62.5202 10.468 62.4962 10.756H62.5502C62.8742 10.264 63.2642 9.874 63.7202 9.586C64.1762 9.298 64.7402 9.154 65.4122 9.154C66.0362 9.154 66.6002 9.28 67.1042 9.532C67.6082 9.784 68.0402 10.138 68.4002 10.594C68.7602 11.038 69.0362 11.572 69.2282 12.196C69.4322 12.808 69.5342 13.48 69.5342 14.212C69.5342 15.004 69.4382 15.718 69.2462 16.354C69.0542 16.978 68.7782 17.512 68.4182 17.956C68.0582 18.388 67.6262 18.724 67.1222 18.964C66.6182 19.192 66.0542 19.306 65.4302 19.306ZM64.6742 17.038C65.3342 17.038 65.8262 16.78 66.1502 16.264C66.4862 15.748 66.6542 15.058 66.6542 14.194C66.6542 13.33 66.4862 12.634 66.1502 12.106C65.8262 11.566 65.3282 11.296 64.6562 11.296C64.2842 11.296 63.9602 11.374 63.6842 11.53C63.4202 11.674 63.1982 11.878 63.0182 12.142C62.8382 12.394 62.7062 12.7 62.6222 13.06C62.5382 13.42 62.4962 13.804 62.4962 14.212C62.4962 15.052 62.6882 15.736 63.0722 16.264C63.4562 16.78 63.9902 17.038 64.6742 17.038ZM70.7259 5.608H73.5699V19H70.7259V5.608ZM79.8296 19.306C79.0616 19.306 78.3656 19.18 77.7416 18.928C77.1176 18.664 76.5836 18.304 76.1396 17.848C75.6956 17.392 75.3536 16.858 75.1136 16.246C74.8736 15.622 74.7536 14.95 74.7536 14.23C74.7536 13.51 74.8736 12.844 75.1136 12.232C75.3536 11.608 75.6956 11.068 76.1396 10.612C76.5836 10.156 77.1176 9.802 77.7416 9.55C78.3656 9.286 79.0616 9.154 79.8296 9.154C80.5856 9.154 81.2756 9.286 81.8996 9.55C82.5236 9.802 83.0516 10.156 83.4836 10.612C83.9276 11.068 84.2696 11.608 84.5096 12.232C84.7496 12.844 84.8696 13.51 84.8696 14.23C84.8696 14.95 84.7496 15.622 84.5096 16.246C84.2696 16.858 83.9276 17.392 83.4836 17.848C83.0516 18.304 82.5236 18.664 81.8996 18.928C81.2756 19.18 80.5856 19.306 79.8296 19.306ZM79.8116 17.254C80.5196 17.254 81.0596 16.978 81.4316 16.426C81.8156 15.862 82.0076 15.13 82.0076 14.23C82.0076 13.318 81.8156 12.58 81.4316 12.016C81.0596 11.452 80.5196 11.17 79.8116 11.17C79.0916 11.17 78.5456 11.452 78.1736 12.016C77.8016 12.58 77.6156 13.318 77.6156 14.23C77.6156 15.13 77.8016 15.862 78.1736 16.426C78.5456 16.978 79.0916 17.254 79.8116 17.254Z" fill="#2F2F38"/>
<rect y="2" width="20" height="20" rx="10" fill="#896FFF"/>
<mask id="mask0" mask-type="alpha" maskUnits="userSpaceOnUse" x="0" y="2" width="20" height="20">
<path d="M20 12C20 6.47715 15.5228 2 10 2C4.47715 2 0 6.47715 0 12C0 17.5228 4.47715 22 10 22C15.5228 22 20 17.5228 20 12Z" fill="#C4C4C4"/>
</mask>
<g mask="url(#mask0)">
<g style="mix-blend-mode:lighten" filter="url(#filter0_f)">
<path d="M10.1462 -1L18.2616 7.1154C22.7436 11.5974 22.6987 18.8188 18.1614 23.2448C13.6241 27.6709 6.31244 27.6254 1.83043 23.1433C-2.65159 18.6613 -2.60671 11.4399 1.93061 7.01398L10.1462 -1Z" fill="#FFD6E0"/>
<path d="M20.0725 -0.571533V8.89249C20.0725 14.1193 15.8354 18.3565 10.6085 18.3565C5.38172 18.3565 1.14453 14.1193 1.14453 8.89249C1.14453 3.66565 5.38172 -0.571533 10.6085 -0.571533H20.0725Z" fill="#09F0FF"/>
<path fill-rule="evenodd" clip-rule="evenodd" d="M-2 16H6.57143C11.3053 16 15.1429 19.8375 15.1429 24.5714C15.1429 29.3053 11.3053 33.1429 6.57143 33.1429C1.83756 33.1429 -2 29.3053 -2 24.5714V16Z" fill="#7000FF"/>
</g>
</g>
<defs>
<filter id="filter0_f" x="-9.1783" y="-8.1783" width="37.9506" height="48.4995" filterUnits="userSpaceOnUse" color-interpolation-filters="sRGB">
<feFlood flood-opacity="0" result="BackgroundImageFix"/>
<feBlend mode="normal" in="SourceGraphic" in2="BackgroundImageFix" result="shape"/>
<feGaussianBlur stdDeviation="3.58915" result="effect1_foregroundBlur"/>
</filter>
</defs>
</svg>
